<?xml version="1.0" encoding="UTF-8" standalone="no"?>
<!DOCTYPE svg PUBLIC "-//W3C//DTD SVG 1.1//EN"
 "http://www.w3.org/Graphics/SVG/1.1/DTD/svg11.dtd">
<!-- Generated by graphviz version 2.24.0 (20090616.2323)
 -->
<!-- Title: controllers_diagram Pages: 1 -->
<svg width="866pt" height="957pt"
 viewBox="0.00 0.00 866.00 957.00" xmlns="http://www.w3.org/2000/svg" xmlns:xlink="http://www.w3.org/1999/xlink">
<g id="graph1" class="graph" transform="scale(1 1) rotate(0) translate(4 953)">
<title>controllers_diagram</title>
<polygon fill="white" stroke="white" points="-4,5 -4,-953 863,-953 863,5 -4,5"/>
<!-- _diagram_info -->
<g id="node1" class="node"><title>_diagram_info</title>
<text text-anchor="start" x="1" y="-518.8" font-family="Times,serif" font-size="13.00">Controllers diagram</text>
<text text-anchor="start" x="1" y="-504.8" font-family="Times,serif" font-size="13.00">Date: Dec 07 2010 &#45; 15:47</text>
<text text-anchor="start" x="1" y="-490.8" font-family="Times,serif" font-size="13.00">Migration version: 20101206102859</text>
<text text-anchor="start" x="1" y="-476.8" font-family="Times,serif" font-size="13.00">Generated by RailRoady 0.11.2</text>
<text text-anchor="start" x="1" y="-462.8" font-family="Times,serif" font-size="13.00">http://railroady.prestonlee.com</text>
</g>
<!-- AdminController -->
<g id="node2" class="node"><title>AdminController</title>
<polyline fill="none" stroke="black" points="661,-1.5 845,-1.5 "/>
<path fill="none" stroke="black" d="M845,-1.5C851,-1.5 857,-7.5 857,-13.5"/>
<polyline fill="none" stroke="black" points="857,-13.5 857,-177.5 "/>
<path fill="none" stroke="black" d="M857,-177.5C857,-183.5 851,-189.5 845,-189.5"/>
<polyline fill="none" stroke="black" points="845,-189.5 661,-189.5 "/>
<path fill="none" stroke="black" d="M661,-189.5C655,-189.5 649,-183.5 649,-177.5"/>
<polyline fill="none" stroke="black" points="649,-177.5 649,-13.5 "/>
<path fill="none" stroke="black" d="M649,-13.5C649,-7.5 655,-1.5 661,-1.5"/>
<text text-anchor="middle" x="753" y="-172.9" font-family="Times,serif" font-size="14.00">AdminController</text>
<polyline fill="none" stroke="black" points="649,-167.5 857,-167.5 "/>
<text text-anchor="start" x="657" y="-150.9" font-family="Times,serif" font-size="14.00">_one_time_conditions_valid_50?</text>
<text text-anchor="start" x="657" y="-136.9" font-family="Times,serif" font-size="14.00">delete_user</text>
<text text-anchor="start" x="657" y="-122.9" font-family="Times,serif" font-size="14.00">grant_admin_rights</text>
<text text-anchor="start" x="657" y="-108.9" font-family="Times,serif" font-size="14.00">grant_user_rights</text>
<text text-anchor="start" x="657" y="-94.9" font-family="Times,serif" font-size="14.00">index</text>
<text text-anchor="start" x="657" y="-80.9" font-family="Times,serif" font-size="14.00">no_rights</text>
<polyline fill="none" stroke="black" points="649,-75.5 857,-75.5 "/>
<polyline fill="none" stroke="black" points="649,-51.5 857,-51.5 "/>
<text text-anchor="start" x="657" y="-34.9" font-family="Times,serif" font-size="14.00">_layout</text>
<text text-anchor="start" x="657" y="-20.9" font-family="Times,serif" font-size="14.00">_run_process_action_callbacks</text>
<text text-anchor="start" x="657" y="-6.9" font-family="Times,serif" font-size="14.00">authorize</text>
</g>
<!-- ApiController -->
<g id="node3" class="node"><title>ApiController</title>
<polyline fill="none" stroke="black" points="37.5,-577.5 222.5,-577.5 "/>
<path fill="none" stroke="black" d="M222.5,-577.5C228.5,-577.5 234.5,-583.5 234.5,-589.5"/>
<polyline fill="none" stroke="black" points="234.5,-589.5 234.5,-697.5 "/>
<path fill="none" stroke="black" d="M234.5,-697.5C234.5,-703.5 228.5,-709.5 222.5,-709.5"/>
<polyline fill="none" stroke="black" points="222.5,-709.5 37.5,-709.5 "/>
<path fill="none" stroke="black" d="M37.5,-709.5C31.5,-709.5 25.5,-703.5 25.5,-697.5"/>
<polyline fill="none" stroke="black" points="25.5,-697.5 25.5,-589.5 "/>
<path fill="none" stroke="black" d="M25.5,-589.5C25.5,-583.5 31.5,-577.5 37.5,-577.5"/>
<text text-anchor="middle" x="130" y="-692.9" font-family="Times,serif" font-size="14.00">ApiController</text>
<polyline fill="none" stroke="black" points="25.5,-687.5 234.5,-687.5 "/>
<text text-anchor="start" x="33.5" y="-670.9" font-family="Times,serif" font-size="14.00">_one_time_conditions_valid_54?</text>
<text text-anchor="start" x="33.5" y="-656.9" font-family="Times,serif" font-size="14.00">get_devices_for_customer</text>
<polyline fill="none" stroke="black" points="25.5,-651.5 234.5,-651.5 "/>
<polyline fill="none" stroke="black" points="25.5,-627.5 234.5,-627.5 "/>
<text text-anchor="start" x="33.5" y="-610.9" font-family="Times,serif" font-size="14.00">_layout</text>
<text text-anchor="start" x="33.5" y="-596.9" font-family="Times,serif" font-size="14.00">_run_process_action_callbacks</text>
<text text-anchor="start" x="33.5" y="-582.9" font-family="Times,serif" font-size="14.00">authenticate_user!</text>
</g>
<!-- ApplicationController -->
<g id="node4" class="node"><title>ApplicationController</title>
<polyline fill="none" stroke="black" points="301,-553.5 487,-553.5 "/>
<path fill="none" stroke="black" d="M487,-553.5C493,-553.5 499,-559.5 499,-565.5"/>
<polyline fill="none" stroke="black" points="499,-565.5 499,-783.5 "/>
<path fill="none" stroke="black" d="M499,-783.5C499,-789.5 493,-795.5 487,-795.5"/>
<polyline fill="none" stroke="black" points="487,-795.5 301,-795.5 "/>
<path fill="none" stroke="black" d="M301,-795.5C295,-795.5 289,-789.5 289,-783.5"/>
<polyline fill="none" stroke="black" points="289,-783.5 289,-565.5 "/>
<path fill="none" stroke="black" d="M289,-565.5C289,-559.5 295,-553.5 301,-553.5"/>
<text text-anchor="middle" x="394" y="-778.9" font-family="Times,serif" font-size="14.00">ApplicationController</text>
<polyline fill="none" stroke="black" points="289,-773.5 499,-773.5 "/>
<text text-anchor="start" x="297" y="-756.9" font-family="Times,serif" font-size="14.00">_one_time_conditions_valid_40?</text>
<text text-anchor="start" x="297" y="-742.9" font-family="Times,serif" font-size="14.00">_one_time_conditions_valid_42?</text>
<text text-anchor="start" x="297" y="-728.9" font-family="Times,serif" font-size="14.00">_one_time_conditions_valid_44?</text>
<text text-anchor="start" x="297" y="-714.9" font-family="Times,serif" font-size="14.00">_one_time_conditions_valid_46?</text>
<text text-anchor="start" x="297" y="-700.9" font-family="Times,serif" font-size="14.00">_one_time_conditions_valid_48?</text>
<polyline fill="none" stroke="black" points="289,-695.5 499,-695.5 "/>
<text text-anchor="start" x="297" y="-678.9" font-family="Times,serif" font-size="14.00">current_datacenter</text>
<text text-anchor="start" x="297" y="-664.9" font-family="Times,serif" font-size="14.00">current_device</text>
<text text-anchor="start" x="297" y="-650.9" font-family="Times,serif" font-size="14.00">current_server_rack</text>
<text text-anchor="start" x="297" y="-636.9" font-family="Times,serif" font-size="14.00">get_all_datacenters</text>
<text text-anchor="start" x="297" y="-622.9" font-family="Times,serif" font-size="14.00">is_iphone_request?</text>
<text text-anchor="start" x="297" y="-608.9" font-family="Times,serif" font-size="14.00">set_iphone_format</text>
<polyline fill="none" stroke="black" points="289,-603.5 499,-603.5 "/>
<text text-anchor="start" x="297" y="-586.9" font-family="Times,serif" font-size="14.00">_layout</text>
<text text-anchor="start" x="297" y="-572.9" font-family="Times,serif" font-size="14.00">_run_process_action_callbacks</text>
<text text-anchor="start" x="297" y="-558.9" font-family="Times,serif" font-size="14.00">authorize</text>
</g>
<!-- CompaniesController -->
<g id="node5" class="node"><title>CompaniesController</title>
<polyline fill="none" stroke="black" points="37,-745.5 221,-745.5 "/>
<path fill="none" stroke="black" d="M221,-745.5C227,-745.5 233,-751.5 233,-757.5"/>
<polyline fill="none" stroke="black" points="233,-757.5 233,-935.5 "/>
<path fill="none" stroke="black" d="M233,-935.5C233,-941.5 227,-947.5 221,-947.5"/>
<polyline fill="none" stroke="black" points="221,-947.5 37,-947.5 "/>
<path fill="none" stroke="black" d="M37,-947.5C31,-947.5 25,-941.5 25,-935.5"/>
<polyline fill="none" stroke="black" points="25,-935.5 25,-757.5 "/>
<path fill="none" stroke="black" d="M25,-757.5C25,-751.5 31,-745.5 37,-745.5"/>
<text text-anchor="middle" x="129" y="-930.9" font-family="Times,serif" font-size="14.00">CompaniesController</text>
<polyline fill="none" stroke="black" points="25,-925.5 233,-925.5 "/>
<text text-anchor="start" x="33" y="-908.9" font-family="Times,serif" font-size="14.00">_one_time_conditions_valid_56?</text>
<text text-anchor="start" x="33" y="-894.9" font-family="Times,serif" font-size="14.00">create</text>
<text text-anchor="start" x="33" y="-880.9" font-family="Times,serif" font-size="14.00">destroy</text>
<text text-anchor="start" x="33" y="-866.9" font-family="Times,serif" font-size="14.00">edit</text>
<text text-anchor="start" x="33" y="-852.9" font-family="Times,serif" font-size="14.00">index</text>
<text text-anchor="start" x="33" y="-838.9" font-family="Times,serif" font-size="14.00">new</text>
<text text-anchor="start" x="33" y="-824.9" font-family="Times,serif" font-size="14.00">show</text>
<text text-anchor="start" x="33" y="-810.9" font-family="Times,serif" font-size="14.00">update</text>
<polyline fill="none" stroke="black" points="25,-805.5 233,-805.5 "/>
<polyline fill="none" stroke="black" points="25,-781.5 233,-781.5 "/>
<text text-anchor="start" x="33" y="-764.9" font-family="Times,serif" font-size="14.00">_layout</text>
<text text-anchor="start" x="33" y="-750.9" font-family="Times,serif" font-size="14.00">_run_process_action_callbacks</text>
</g>
<!-- DatacentersController -->
<g id="node6" class="node"><title>DatacentersController</title>
<polyline fill="none" stroke="black" points="397.5,-1.5 580.5,-1.5 "/>
<path fill="none" stroke="black" d="M580.5,-1.5C586.5,-1.5 592.5,-7.5 592.5,-13.5"/>
<polyline fill="none" stroke="black" points="592.5,-13.5 592.5,-177.5 "/>
<path fill="none" stroke="black" d="M592.5,-177.5C592.5,-183.5 586.5,-189.5 580.5,-189.5"/>
<polyline fill="none" stroke="black" points="580.5,-189.5 397.5,-189.5 "/>
<path fill="none" stroke="black" d="M397.5,-189.5C391.5,-189.5 385.5,-183.5 385.5,-177.5"/>
<polyline fill="none" stroke="black" points="385.5,-177.5 385.5,-13.5 "/>
<path fill="none" stroke="black" d="M385.5,-13.5C385.5,-7.5 391.5,-1.5 397.5,-1.5"/>
<text text-anchor="middle" x="489" y="-172.9" font-family="Times,serif" font-size="14.00">DatacentersController</text>
<polyline fill="none" stroke="black" points="385.5,-167.5 592.5,-167.5 "/>
<text text-anchor="start" x="393.5" y="-150.9" font-family="Times,serif" font-size="14.00">_one_time_conditions_valid_58?</text>
<text text-anchor="start" x="393.5" y="-136.9" font-family="Times,serif" font-size="14.00">create</text>
<text text-anchor="start" x="393.5" y="-122.9" font-family="Times,serif" font-size="14.00">destroy</text>
<text text-anchor="start" x="393.5" y="-108.9" font-family="Times,serif" font-size="14.00">edit</text>
<text text-anchor="start" x="393.5" y="-94.9" font-family="Times,serif" font-size="14.00">index</text>
<text text-anchor="start" x="393.5" y="-80.9" font-family="Times,serif" font-size="14.00">new</text>
<text text-anchor="start" x="393.5" y="-66.9" font-family="Times,serif" font-size="14.00">update</text>
<polyline fill="none" stroke="black" points="385.5,-61.5 592.5,-61.5 "/>
<polyline fill="none" stroke="black" points="385.5,-37.5 592.5,-37.5 "/>
<text text-anchor="start" x="393.5" y="-20.9" font-family="Times,serif" font-size="14.00">_layout</text>
<text text-anchor="start" x="393.5" y="-6.9" font-family="Times,serif" font-size="14.00">_run_process_action_callbacks</text>
</g>
<!-- DevicesController -->
<g id="node7" class="node"><title>DevicesController</title>
<polyline fill="none" stroke="black" points="541,-241.5 733,-241.5 "/>
<path fill="none" stroke="black" d="M733,-241.5C739,-241.5 745,-247.5 745,-253.5"/>
<polyline fill="none" stroke="black" points="745,-253.5 745,-487.5 "/>
<path fill="none" stroke="black" d="M745,-487.5C745,-493.5 739,-499.5 733,-499.5"/>
<polyline fill="none" stroke="black" points="733,-499.5 541,-499.5 "/>
<path fill="none" stroke="black" d="M541,-499.5C535,-499.5 529,-493.5 529,-487.5"/>
<polyline fill="none" stroke="black" points="529,-487.5 529,-253.5 "/>
<path fill="none" stroke="black" d="M529,-253.5C529,-247.5 535,-241.5 541,-241.5"/>
<text text-anchor="middle" x="637" y="-482.9" font-family="Times,serif" font-size="14.00">DevicesController</text>
<polyline fill="none" stroke="black" points="529,-477.5 745,-477.5 "/>
<text text-anchor="start" x="537" y="-460.9" font-family="Times,serif" font-size="14.00">_callback_around_213</text>
<text text-anchor="start" x="537" y="-446.9" font-family="Times,serif" font-size="14.00">_callback_around_213_object</text>
<text text-anchor="start" x="537" y="-432.9" font-family="Times,serif" font-size="14.00">_conditional_callback_around_217</text>
<text text-anchor="start" x="537" y="-418.9" font-family="Times,serif" font-size="14.00">_one_time_conditions_valid_214?</text>
<text text-anchor="start" x="537" y="-404.9" font-family="Times,serif" font-size="14.00">_one_time_conditions_valid_60?</text>
<text text-anchor="start" x="537" y="-390.9" font-family="Times,serif" font-size="14.00">collect_interfaces</text>
<text text-anchor="start" x="537" y="-376.9" font-family="Times,serif" font-size="14.00">create</text>
<text text-anchor="start" x="537" y="-362.9" font-family="Times,serif" font-size="14.00">destroy</text>
<text text-anchor="start" x="537" y="-348.9" font-family="Times,serif" font-size="14.00">edit</text>
<text text-anchor="start" x="537" y="-334.9" font-family="Times,serif" font-size="14.00">new</text>
<text text-anchor="start" x="537" y="-320.9" font-family="Times,serif" font-size="14.00">show</text>
<text text-anchor="start" x="537" y="-306.9" font-family="Times,serif" font-size="14.00">update</text>
<polyline fill="none" stroke="black" points="529,-301.5 745,-301.5 "/>
<polyline fill="none" stroke="black" points="529,-277.5 745,-277.5 "/>
<text text-anchor="start" x="537" y="-260.9" font-family="Times,serif" font-size="14.00">_layout</text>
<text text-anchor="start" x="537" y="-246.9" font-family="Times,serif" font-size="14.00">_run_process_action_callbacks</text>
</g>
<!-- InterfacesController -->
<g id="node8" class="node"><title>InterfacesController</title>
<polyline fill="none" stroke="black" points="565,-553.5 759,-553.5 "/>
<path fill="none" stroke="black" d="M759,-553.5C765,-553.5 771,-559.5 771,-565.5"/>
<polyline fill="none" stroke="black" points="771,-565.5 771,-771.5 "/>
<path fill="none" stroke="black" d="M771,-771.5C771,-777.5 765,-783.5 759,-783.5"/>
<polyline fill="none" stroke="black" points="759,-783.5 565,-783.5 "/>
<path fill="none" stroke="black" d="M565,-783.5C559,-783.5 553,-777.5 553,-771.5"/>
<polyline fill="none" stroke="black" points="553,-771.5 553,-565.5 "/>
<path fill="none" stroke="black" d="M553,-565.5C553,-559.5 559,-553.5 565,-553.5"/>
<text text-anchor="middle" x="662" y="-766.9" font-family="Times,serif" font-size="14.00">InterfacesController</text>
<polyline fill="none" stroke="black" points="553,-761.5 771,-761.5 "/>
<text text-anchor="start" x="561" y="-744.9" font-family="Times,serif" font-size="14.00">_callback_around_220</text>
<text text-anchor="start" x="561" y="-730.9" font-family="Times,serif" font-size="14.00">_callback_around_220_object</text>
<text text-anchor="start" x="561" y="-716.9" font-family="Times,serif" font-size="14.00">_conditional_callback_around_224</text>
<text text-anchor="start" x="561" y="-702.9" font-family="Times,serif" font-size="14.00">_one_time_conditions_valid_219?</text>
<text text-anchor="start" x="561" y="-688.9" font-family="Times,serif" font-size="14.00">_one_time_conditions_valid_221?</text>
<text text-anchor="start" x="561" y="-674.9" font-family="Times,serif" font-size="14.00">create</text>
<text text-anchor="start" x="561" y="-660.9" font-family="Times,serif" font-size="14.00">destroy</text>
<text text-anchor="start" x="561" y="-646.9" font-family="Times,serif" font-size="14.00">edit</text>
<text text-anchor="start" x="561" y="-632.9" font-family="Times,serif" font-size="14.00">new</text>
<text text-anchor="start" x="561" y="-618.9" font-family="Times,serif" font-size="14.00">update</text>
<polyline fill="none" stroke="black" points="553,-613.5 771,-613.5 "/>
<polyline fill="none" stroke="black" points="553,-589.5 771,-589.5 "/>
<text text-anchor="start" x="561" y="-572.9" font-family="Times,serif" font-size="14.00">_layout</text>
<text text-anchor="start" x="561" y="-558.9" font-family="Times,serif" font-size="14.00">_run_process_action_callbacks</text>
</g>
<!-- SearchController -->
<g id="node9" class="node"><title>SearchController</title>
<polyline fill="none" stroke="black" points="37,-25.5 227,-25.5 "/>
<path fill="none" stroke="black" d="M227,-25.5C233,-25.5 239,-31.5 239,-37.5"/>
<polyline fill="none" stroke="black" points="239,-37.5 239,-173.5 "/>
<path fill="none" stroke="black" d="M239,-173.5C239,-179.5 233,-185.5 227,-185.5"/>
<polyline fill="none" stroke="black" points="227,-185.5 37,-185.5 "/>
<path fill="none" stroke="black" d="M37,-185.5C31,-185.5 25,-179.5 25,-173.5"/>
<polyline fill="none" stroke="black" points="25,-173.5 25,-37.5 "/>
<path fill="none" stroke="black" d="M25,-37.5C25,-31.5 31,-25.5 37,-25.5"/>
<text text-anchor="middle" x="132" y="-168.9" font-family="Times,serif" font-size="14.00">SearchController</text>
<polyline fill="none" stroke="black" points="25,-163.5 239,-163.5 "/>
<text text-anchor="start" x="33" y="-146.9" font-family="Times,serif" font-size="14.00">_one_time_conditions_valid_226?</text>
<text text-anchor="start" x="33" y="-132.9" font-family="Times,serif" font-size="14.00">company_names</text>
<text text-anchor="start" x="33" y="-118.9" font-family="Times,serif" font-size="14.00">find_colors</text>
<text text-anchor="start" x="33" y="-104.9" font-family="Times,serif" font-size="14.00">iphone_search</text>
<text text-anchor="start" x="33" y="-90.9" font-family="Times,serif" font-size="14.00">search</text>
<polyline fill="none" stroke="black" points="25,-85.5 239,-85.5 "/>
<polyline fill="none" stroke="black" points="25,-61.5 239,-61.5 "/>
<text text-anchor="start" x="33" y="-44.9" font-family="Times,serif" font-size="14.00">_layout</text>
<text text-anchor="start" x="33" y="-30.9" font-family="Times,serif" font-size="14.00">_run_process_action_callbacks</text>
</g>
<!-- ServerRacksController -->
<g id="node10" class="node"><title>ServerRacksController</title>
<polyline fill="none" stroke="black" points="277,-241.5 471,-241.5 "/>
<path fill="none" stroke="black" d="M471,-241.5C477,-241.5 483,-247.5 483,-253.5"/>
<polyline fill="none" stroke="black" points="483,-253.5 483,-501.5 "/>
<path fill="none" stroke="black" d="M483,-501.5C483,-507.5 477,-513.5 471,-513.5"/>
<polyline fill="none" stroke="black" points="471,-513.5 277,-513.5 "/>
<path fill="none" stroke="black" d="M277,-513.5C271,-513.5 265,-507.5 265,-501.5"/>
<polyline fill="none" stroke="black" points="265,-501.5 265,-253.5 "/>
<path fill="none" stroke="black" d="M265,-253.5C265,-247.5 271,-241.5 277,-241.5"/>
<text text-anchor="middle" x="374" y="-496.9" font-family="Times,serif" font-size="14.00">ServerRacksController</text>
<polyline fill="none" stroke="black" points="265,-491.5 483,-491.5 "/>
<text text-anchor="start" x="273" y="-474.9" font-family="Times,serif" font-size="14.00">_callback_around_235</text>
<text text-anchor="start" x="273" y="-460.9" font-family="Times,serif" font-size="14.00">_callback_around_235_object</text>
<text text-anchor="start" x="273" y="-446.9" font-family="Times,serif" font-size="14.00">_conditional_callback_around_239</text>
<text text-anchor="start" x="273" y="-432.9" font-family="Times,serif" font-size="14.00">_conditional_callback_around_242</text>
<text text-anchor="start" x="273" y="-418.9" font-family="Times,serif" font-size="14.00">_one_time_conditions_valid_236?</text>
<text text-anchor="start" x="273" y="-404.9" font-family="Times,serif" font-size="14.00">_one_time_conditions_valid_241?</text>
<text text-anchor="start" x="273" y="-390.9" font-family="Times,serif" font-size="14.00">create</text>
<text text-anchor="start" x="273" y="-376.9" font-family="Times,serif" font-size="14.00">destroy</text>
<text text-anchor="start" x="273" y="-362.9" font-family="Times,serif" font-size="14.00">edit</text>
<text text-anchor="start" x="273" y="-348.9" font-family="Times,serif" font-size="14.00">index</text>
<text text-anchor="start" x="273" y="-334.9" font-family="Times,serif" font-size="14.00">new</text>
<text text-anchor="start" x="273" y="-320.9" font-family="Times,serif" font-size="14.00">show</text>
<text text-anchor="start" x="273" y="-306.9" font-family="Times,serif" font-size="14.00">update</text>
<polyline fill="none" stroke="black" points="265,-301.5 483,-301.5 "/>
<polyline fill="none" stroke="black" points="265,-277.5 483,-277.5 "/>
<text text-anchor="start" x="273" y="-260.9" font-family="Times,serif" font-size="14.00">_layout</text>
<text text-anchor="start" x="273" y="-246.9" font-family="Times,serif" font-size="14.00">_run_process_action_callbacks</text>
</g>
</g>
</svg>
