<?xml version="1.0" encoding="UTF-8" standalone="no"?>
<!DOCTYPE svg PUBLIC "-//W3C//DTD SVG 1.1//EN"
 "http://www.w3.org/Graphics/SVG/1.1/DTD/svg11.dtd">
<!-- Generated by graphviz version 2.24.0 (20090616.2323)
 -->
<!-- Title: controllers_diagram Pages: 1 -->
<svg width="872pt" height="943pt"
 viewBox="0.00 0.00 871.50 943.00" xmlns="http://www.w3.org/2000/svg" xmlns:xlink="http://www.w3.org/1999/xlink">
<g id="graph1" class="graph" transform="scale(1 1) rotate(0) translate(4 939)">
<title>controllers_diagram</title>
<polygon fill="white" stroke="white" points="-4,5 -4,-939 868.5,-939 868.5,5 -4,5"/>
<!-- _diagram_info -->

<!-- AdminController -->
<g id="node2" class="node"><title>AdminController</title>
<polyline fill="none" stroke="black" points="396.5,-1.5 580.5,-1.5 "/>
<path fill="none" stroke="black" d="M580.5,-1.5C586.5,-1.5 592.5,-7.5 592.5,-13.5"/>
<polyline fill="none" stroke="black" points="592.5,-13.5 592.5,-177.5 "/>
<path fill="none" stroke="black" d="M592.5,-177.5C592.5,-183.5 586.5,-189.5 580.5,-189.5"/>
<polyline fill="none" stroke="black" points="580.5,-189.5 396.5,-189.5 "/>
<path fill="none" stroke="black" d="M396.5,-189.5C390.5,-189.5 384.5,-183.5 384.5,-177.5"/>
<polyline fill="none" stroke="black" points="384.5,-177.5 384.5,-13.5 "/>
<path fill="none" stroke="black" d="M384.5,-13.5C384.5,-7.5 390.5,-1.5 396.5,-1.5"/>
<text text-anchor="middle" x="488.5" y="-172.9" font-family="Times,serif" font-size="14.00">AdminController</text>
<polyline fill="none" stroke="black" points="384.5,-167.5 592.5,-167.5 "/>
<text text-anchor="start" x="392.5" y="-150.9" font-family="Times,serif" font-size="14.00">_one_time_conditions_valid_50?</text>
<text text-anchor="start" x="392.5" y="-136.9" font-family="Times,serif" font-size="14.00">delete_user</text>
<text text-anchor="start" x="392.5" y="-122.9" font-family="Times,serif" font-size="14.00">grant_admin_rights</text>
<text text-anchor="start" x="392.5" y="-108.9" font-family="Times,serif" font-size="14.00">grant_user_rights</text>
<text text-anchor="start" x="392.5" y="-94.9" font-family="Times,serif" font-size="14.00">index</text>
<text text-anchor="start" x="392.5" y="-80.9" font-family="Times,serif" font-size="14.00">no_rights</text>
<polyline fill="none" stroke="black" points="384.5,-75.5 592.5,-75.5 "/>
<polyline fill="none" stroke="black" points="384.5,-51.5 592.5,-51.5 "/>
<text text-anchor="start" x="392.5" y="-34.9" font-family="Times,serif" font-size="14.00">_layout</text>
<text text-anchor="start" x="392.5" y="-20.9" font-family="Times,serif" font-size="14.00">_run_process_action_callbacks</text>
<text text-anchor="start" x="392.5" y="-6.9" font-family="Times,serif" font-size="14.00">authorize</text>
</g>
<!-- ApiController -->
<g id="node3" class="node"><title>ApiController</title>
<polyline fill="none" stroke="black" points="85,-73.5 270,-73.5 "/>
<path fill="none" stroke="black" d="M270,-73.5C276,-73.5 282,-79.5 282,-85.5"/>
<polyline fill="none" stroke="black" points="282,-85.5 282,-193.5 "/>
<path fill="none" stroke="black" d="M282,-193.5C282,-199.5 276,-205.5 270,-205.5"/>
<polyline fill="none" stroke="black" points="270,-205.5 85,-205.5 "/>
<path fill="none" stroke="black" d="M85,-205.5C79,-205.5 73,-199.5 73,-193.5"/>
<polyline fill="none" stroke="black" points="73,-193.5 73,-85.5 "/>
<path fill="none" stroke="black" d="M73,-85.5C73,-79.5 79,-73.5 85,-73.5"/>
<text text-anchor="middle" x="177.5" y="-188.9" font-family="Times,serif" font-size="14.00">ApiController</text>
<polyline fill="none" stroke="black" points="73,-183.5 282,-183.5 "/>
<text text-anchor="start" x="81" y="-166.9" font-family="Times,serif" font-size="14.00">_one_time_conditions_valid_54?</text>
<text text-anchor="start" x="81" y="-152.9" font-family="Times,serif" font-size="14.00">get_devices_for_customer</text>
<polyline fill="none" stroke="black" points="73,-147.5 282,-147.5 "/>
<polyline fill="none" stroke="black" points="73,-123.5 282,-123.5 "/>
<text text-anchor="start" x="81" y="-106.9" font-family="Times,serif" font-size="14.00">_layout</text>
<text text-anchor="start" x="81" y="-92.9" font-family="Times,serif" font-size="14.00">_run_process_action_callbacks</text>
<text text-anchor="start" x="81" y="-78.9" font-family="Times,serif" font-size="14.00">authenticate_user!</text>
</g>
<!-- ApplicationController -->
<g id="node4" class="node"><title>ApplicationController</title>
<polyline fill="none" stroke="black" points="564.5,-553.5 750.5,-553.5 "/>
<path fill="none" stroke="black" d="M750.5,-553.5C756.5,-553.5 762.5,-559.5 762.5,-565.5"/>
<polyline fill="none" stroke="black" points="762.5,-565.5 762.5,-783.5 "/>
<path fill="none" stroke="black" d="M762.5,-783.5C762.5,-789.5 756.5,-795.5 750.5,-795.5"/>
<polyline fill="none" stroke="black" points="750.5,-795.5 564.5,-795.5 "/>
<path fill="none" stroke="black" d="M564.5,-795.5C558.5,-795.5 552.5,-789.5 552.5,-783.5"/>
<polyline fill="none" stroke="black" points="552.5,-783.5 552.5,-565.5 "/>
<path fill="none" stroke="black" d="M552.5,-565.5C552.5,-559.5 558.5,-553.5 564.5,-553.5"/>
<text text-anchor="middle" x="657.5" y="-778.9" font-family="Times,serif" font-size="14.00">ApplicationController</text>
<polyline fill="none" stroke="black" points="552.5,-773.5 762.5,-773.5 "/>
<text text-anchor="start" x="560.5" y="-756.9" font-family="Times,serif" font-size="14.00">_one_time_conditions_valid_40?</text>
<text text-anchor="start" x="560.5" y="-742.9" font-family="Times,serif" font-size="14.00">_one_time_conditions_valid_42?</text>
<text text-anchor="start" x="560.5" y="-728.9" font-family="Times,serif" font-size="14.00">_one_time_conditions_valid_44?</text>
<text text-anchor="start" x="560.5" y="-714.9" font-family="Times,serif" font-size="14.00">_one_time_conditions_valid_46?</text>
<text text-anchor="start" x="560.5" y="-700.9" font-family="Times,serif" font-size="14.00">_one_time_conditions_valid_48?</text>
<polyline fill="none" stroke="black" points="552.5,-695.5 762.5,-695.5 "/>
<text text-anchor="start" x="560.5" y="-678.9" font-family="Times,serif" font-size="14.00">current_datacenter</text>
<text text-anchor="start" x="560.5" y="-664.9" font-family="Times,serif" font-size="14.00">current_device</text>
<text text-anchor="start" x="560.5" y="-650.9" font-family="Times,serif" font-size="14.00">current_server_rack</text>
<text text-anchor="start" x="560.5" y="-636.9" font-family="Times,serif" font-size="14.00">get_all_datacenters</text>
<text text-anchor="start" x="560.5" y="-622.9" font-family="Times,serif" font-size="14.00">is_iphone_request?</text>
<text text-anchor="start" x="560.5" y="-608.9" font-family="Times,serif" font-size="14.00">set_iphone_format</text>
<polyline fill="none" stroke="black" points="552.5,-603.5 762.5,-603.5 "/>
<text text-anchor="start" x="560.5" y="-586.9" font-family="Times,serif" font-size="14.00">_layout</text>
<text text-anchor="start" x="560.5" y="-572.9" font-family="Times,serif" font-size="14.00">_run_process_action_callbacks</text>
<text text-anchor="start" x="560.5" y="-558.9" font-family="Times,serif" font-size="14.00">authorize</text>
</g>
<!-- CompaniesController -->
<g id="node5" class="node"><title>CompaniesController</title>
<polyline fill="none" stroke="black" points="300.5,-553.5 484.5,-553.5 "/>
<path fill="none" stroke="black" d="M484.5,-553.5C490.5,-553.5 496.5,-559.5 496.5,-565.5"/>
<polyline fill="none" stroke="black" points="496.5,-565.5 496.5,-743.5 "/>
<path fill="none" stroke="black" d="M496.5,-743.5C496.5,-749.5 490.5,-755.5 484.5,-755.5"/>
<polyline fill="none" stroke="black" points="484.5,-755.5 300.5,-755.5 "/>
<path fill="none" stroke="black" d="M300.5,-755.5C294.5,-755.5 288.5,-749.5 288.5,-743.5"/>
<polyline fill="none" stroke="black" points="288.5,-743.5 288.5,-565.5 "/>
<path fill="none" stroke="black" d="M288.5,-565.5C288.5,-559.5 294.5,-553.5 300.5,-553.5"/>
<text text-anchor="middle" x="392.5" y="-738.9" font-family="Times,serif" font-size="14.00">CompaniesController</text>
<polyline fill="none" stroke="black" points="288.5,-733.5 496.5,-733.5 "/>
<text text-anchor="start" x="296.5" y="-716.9" font-family="Times,serif" font-size="14.00">_one_time_conditions_valid_56?</text>
<text text-anchor="start" x="296.5" y="-702.9" font-family="Times,serif" font-size="14.00">create</text>
<text text-anchor="start" x="296.5" y="-688.9" font-family="Times,serif" font-size="14.00">destroy</text>
<text text-anchor="start" x="296.5" y="-674.9" font-family="Times,serif" font-size="14.00">edit</text>
<text text-anchor="start" x="296.5" y="-660.9" font-family="Times,serif" font-size="14.00">index</text>
<text text-anchor="start" x="296.5" y="-646.9" font-family="Times,serif" font-size="14.00">new</text>
<text text-anchor="start" x="296.5" y="-632.9" font-family="Times,serif" font-size="14.00">show</text>
<text text-anchor="start" x="296.5" y="-618.9" font-family="Times,serif" font-size="14.00">update</text>
<polyline fill="none" stroke="black" points="288.5,-613.5 496.5,-613.5 "/>
<polyline fill="none" stroke="black" points="288.5,-589.5 496.5,-589.5 "/>
<text text-anchor="start" x="296.5" y="-572.9" font-family="Times,serif" font-size="14.00">_layout</text>
<text text-anchor="start" x="296.5" y="-558.9" font-family="Times,serif" font-size="14.00">_run_process_action_callbacks</text>
</g>
<!-- DatacentersController -->
<g id="node6" class="node"><title>DatacentersController</title>
<polyline fill="none" stroke="black" points="37,-745.5 220,-745.5 "/>
<path fill="none" stroke="black" d="M220,-745.5C226,-745.5 232,-751.5 232,-757.5"/>
<polyline fill="none" stroke="black" points="232,-757.5 232,-921.5 "/>
<path fill="none" stroke="black" d="M232,-921.5C232,-927.5 226,-933.5 220,-933.5"/>
<polyline fill="none" stroke="black" points="220,-933.5 37,-933.5 "/>
<path fill="none" stroke="black" d="M37,-933.5C31,-933.5 25,-927.5 25,-921.5"/>
<polyline fill="none" stroke="black" points="25,-921.5 25,-757.5 "/>
<path fill="none" stroke="black" d="M25,-757.5C25,-751.5 31,-745.5 37,-745.5"/>
<text text-anchor="middle" x="128.5" y="-916.9" font-family="Times,serif" font-size="14.00">DatacentersController</text>
<polyline fill="none" stroke="black" points="25,-911.5 232,-911.5 "/>
<text text-anchor="start" x="33" y="-894.9" font-family="Times,serif" font-size="14.00">_one_time_conditions_valid_58?</text>
<text text-anchor="start" x="33" y="-880.9" font-family="Times,serif" font-size="14.00">create</text>
<text text-anchor="start" x="33" y="-866.9" font-family="Times,serif" font-size="14.00">destroy</text>
<text text-anchor="start" x="33" y="-852.9" font-family="Times,serif" font-size="14.00">edit</text>
<text text-anchor="start" x="33" y="-838.9" font-family="Times,serif" font-size="14.00">index</text>
<text text-anchor="start" x="33" y="-824.9" font-family="Times,serif" font-size="14.00">new</text>
<text text-anchor="start" x="33" y="-810.9" font-family="Times,serif" font-size="14.00">update</text>
<polyline fill="none" stroke="black" points="25,-805.5 232,-805.5 "/>
<polyline fill="none" stroke="black" points="25,-781.5 232,-781.5 "/>
<text text-anchor="start" x="33" y="-764.9" font-family="Times,serif" font-size="14.00">_layout</text>
<text text-anchor="start" x="33" y="-750.9" font-family="Times,serif" font-size="14.00">_run_process_action_callbacks</text>
</g>
<!-- DevicesController -->
<g id="node7" class="node"><title>DevicesController</title>
<polyline fill="none" stroke="black" points="540.5,-241.5 732.5,-241.5 "/>
<path fill="none" stroke="black" d="M732.5,-241.5C738.5,-241.5 744.5,-247.5 744.5,-253.5"/>
<polyline fill="none" stroke="black" points="744.5,-253.5 744.5,-487.5 "/>
<path fill="none" stroke="black" d="M744.5,-487.5C744.5,-493.5 738.5,-499.5 732.5,-499.5"/>
<polyline fill="none" stroke="black" points="732.5,-499.5 540.5,-499.5 "/>
<path fill="none" stroke="black" d="M540.5,-499.5C534.5,-499.5 528.5,-493.5 528.5,-487.5"/>
<polyline fill="none" stroke="black" points="528.5,-487.5 528.5,-253.5 "/>
<path fill="none" stroke="black" d="M528.5,-253.5C528.5,-247.5 534.5,-241.5 540.5,-241.5"/>
<text text-anchor="middle" x="636.5" y="-482.9" font-family="Times,serif" font-size="14.00">DevicesController</text>
<polyline fill="none" stroke="black" points="528.5,-477.5 744.5,-477.5 "/>
<text text-anchor="start" x="536.5" y="-460.9" font-family="Times,serif" font-size="14.00">_callback_around_213</text>
<text text-anchor="start" x="536.5" y="-446.9" font-family="Times,serif" font-size="14.00">_callback_around_213_object</text>
<text text-anchor="start" x="536.5" y="-432.9" font-family="Times,serif" font-size="14.00">_conditional_callback_around_217</text>
<text text-anchor="start" x="536.5" y="-418.9" font-family="Times,serif" font-size="14.00">_one_time_conditions_valid_214?</text>
<text text-anchor="start" x="536.5" y="-404.9" font-family="Times,serif" font-size="14.00">_one_time_conditions_valid_60?</text>
<text text-anchor="start" x="536.5" y="-390.9" font-family="Times,serif" font-size="14.00">collect_interfaces</text>
<text text-anchor="start" x="536.5" y="-376.9" font-family="Times,serif" font-size="14.00">create</text>
<text text-anchor="start" x="536.5" y="-362.9" font-family="Times,serif" font-size="14.00">destroy</text>
<text text-anchor="start" x="536.5" y="-348.9" font-family="Times,serif" font-size="14.00">edit</text>
<text text-anchor="start" x="536.5" y="-334.9" font-family="Times,serif" font-size="14.00">new</text>
<text text-anchor="start" x="536.5" y="-320.9" font-family="Times,serif" font-size="14.00">show</text>
<text text-anchor="start" x="536.5" y="-306.9" font-family="Times,serif" font-size="14.00">update</text>
<polyline fill="none" stroke="black" points="528.5,-301.5 744.5,-301.5 "/>
<polyline fill="none" stroke="black" points="528.5,-277.5 744.5,-277.5 "/>
<text text-anchor="start" x="536.5" y="-260.9" font-family="Times,serif" font-size="14.00">_layout</text>
<text text-anchor="start" x="536.5" y="-246.9" font-family="Times,serif" font-size="14.00">_run_process_action_callbacks</text>
</g>
<!-- InterfacesController -->
<g id="node8" class="node"><title>InterfacesController</title>
<polyline fill="none" stroke="black" points="660.5,-25.5 850.5,-25.5 "/>
<path fill="none" stroke="black" d="M850.5,-25.5C856.5,-25.5 862.5,-31.5 862.5,-37.5"/>
<polyline fill="none" stroke="black" points="862.5,-37.5 862.5,-187.5 "/>
<path fill="none" stroke="black" d="M862.5,-187.5C862.5,-193.5 856.5,-199.5 850.5,-199.5"/>
<polyline fill="none" stroke="black" points="850.5,-199.5 660.5,-199.5 "/>
<path fill="none" stroke="black" d="M660.5,-199.5C654.5,-199.5 648.5,-193.5 648.5,-187.5"/>
<polyline fill="none" stroke="black" points="648.5,-187.5 648.5,-37.5 "/>
<path fill="none" stroke="black" d="M648.5,-37.5C648.5,-31.5 654.5,-25.5 660.5,-25.5"/>
<text text-anchor="middle" x="755.5" y="-182.9" font-family="Times,serif" font-size="14.00">InterfacesController</text>
<polyline fill="none" stroke="black" points="648.5,-177.5 862.5,-177.5 "/>
<text text-anchor="start" x="656.5" y="-160.9" font-family="Times,serif" font-size="14.00">_one_time_conditions_valid_219?</text>
<text text-anchor="start" x="656.5" y="-146.9" font-family="Times,serif" font-size="14.00">create</text>
<text text-anchor="start" x="656.5" y="-132.9" font-family="Times,serif" font-size="14.00">destroy</text>
<text text-anchor="start" x="656.5" y="-118.9" font-family="Times,serif" font-size="14.00">edit</text>
<text text-anchor="start" x="656.5" y="-104.9" font-family="Times,serif" font-size="14.00">new</text>
<text text-anchor="start" x="656.5" y="-90.9" font-family="Times,serif" font-size="14.00">update</text>
<polyline fill="none" stroke="black" points="648.5,-85.5 862.5,-85.5 "/>
<polyline fill="none" stroke="black" points="648.5,-61.5 862.5,-61.5 "/>
<text text-anchor="start" x="656.5" y="-44.9" font-family="Times,serif" font-size="14.00">_layout</text>
<text text-anchor="start" x="656.5" y="-30.9" font-family="Times,serif" font-size="14.00">_run_process_action_callbacks</text>
</g>
<!-- SearchController -->
<g id="node9" class="node"><title>SearchController</title>
<polyline fill="none" stroke="black" points="37,-553.5 226,-553.5 "/>
<path fill="none" stroke="black" d="M226,-553.5C232,-553.5 238,-559.5 238,-565.5"/>
<polyline fill="none" stroke="black" points="238,-565.5 238,-687.5 "/>
<path fill="none" stroke="black" d="M238,-687.5C238,-693.5 232,-699.5 226,-699.5"/>
<polyline fill="none" stroke="black" points="226,-699.5 37,-699.5 "/>
<path fill="none" stroke="black" d="M37,-699.5C31,-699.5 25,-693.5 25,-687.5"/>
<polyline fill="none" stroke="black" points="25,-687.5 25,-565.5 "/>
<path fill="none" stroke="black" d="M25,-565.5C25,-559.5 31,-553.5 37,-553.5"/>
<text text-anchor="middle" x="131.5" y="-682.9" font-family="Times,serif" font-size="14.00">SearchController</text>
<polyline fill="none" stroke="black" points="25,-677.5 238,-677.5 "/>
<text text-anchor="start" x="33" y="-660.9" font-family="Times,serif" font-size="14.00">_one_time_conditions_valid_221?</text>
<text text-anchor="start" x="33" y="-646.9" font-family="Times,serif" font-size="14.00">company_names</text>
<text text-anchor="start" x="33" y="-632.9" font-family="Times,serif" font-size="14.00">find_colors</text>
<text text-anchor="start" x="33" y="-618.9" font-family="Times,serif" font-size="14.00">search</text>
<polyline fill="none" stroke="black" points="25,-613.5 238,-613.5 "/>
<polyline fill="none" stroke="black" points="25,-589.5 238,-589.5 "/>
<text text-anchor="start" x="33" y="-572.9" font-family="Times,serif" font-size="14.00">_layout</text>
<text text-anchor="start" x="33" y="-558.9" font-family="Times,serif" font-size="14.00">_run_process_action_callbacks</text>
</g>
<!-- ServerRacksController -->
<g id="node10" class="node"><title>ServerRacksController</title>
<polyline fill="none" stroke="black" points="276.5,-241.5 470.5,-241.5 "/>
<path fill="none" stroke="black" d="M470.5,-241.5C476.5,-241.5 482.5,-247.5 482.5,-253.5"/>
<polyline fill="none" stroke="black" points="482.5,-253.5 482.5,-501.5 "/>
<path fill="none" stroke="black" d="M482.5,-501.5C482.5,-507.5 476.5,-513.5 470.5,-513.5"/>
<polyline fill="none" stroke="black" points="470.5,-513.5 276.5,-513.5 "/>
<path fill="none" stroke="black" d="M276.5,-513.5C270.5,-513.5 264.5,-507.5 264.5,-501.5"/>
<polyline fill="none" stroke="black" points="264.5,-501.5 264.5,-253.5 "/>
<path fill="none" stroke="black" d="M264.5,-253.5C264.5,-247.5 270.5,-241.5 276.5,-241.5"/>
<text text-anchor="middle" x="373.5" y="-496.9" font-family="Times,serif" font-size="14.00">ServerRacksController</text>
<polyline fill="none" stroke="black" points="264.5,-491.5 482.5,-491.5 "/>
<text text-anchor="start" x="272.5" y="-474.9" font-family="Times,serif" font-size="14.00">_callback_around_230</text>
<text text-anchor="start" x="272.5" y="-460.9" font-family="Times,serif" font-size="14.00">_callback_around_230_object</text>
<text text-anchor="start" x="272.5" y="-446.9" font-family="Times,serif" font-size="14.00">_conditional_callback_around_234</text>
<text text-anchor="start" x="272.5" y="-432.9" font-family="Times,serif" font-size="14.00">_conditional_callback_around_237</text>
<text text-anchor="start" x="272.5" y="-418.9" font-family="Times,serif" font-size="14.00">_one_time_conditions_valid_231?</text>
<text text-anchor="start" x="272.5" y="-404.9" font-family="Times,serif" font-size="14.00">_one_time_conditions_valid_236?</text>
<text text-anchor="start" x="272.5" y="-390.9" font-family="Times,serif" font-size="14.00">create</text>
<text text-anchor="start" x="272.5" y="-376.9" font-family="Times,serif" font-size="14.00">destroy</text>
<text text-anchor="start" x="272.5" y="-362.9" font-family="Times,serif" font-size="14.00">edit</text>
<text text-anchor="start" x="272.5" y="-348.9" font-family="Times,serif" font-size="14.00">index</text>
<text text-anchor="start" x="272.5" y="-334.9" font-family="Times,serif" font-size="14.00">new</text>
<text text-anchor="start" x="272.5" y="-320.9" font-family="Times,serif" font-size="14.00">show</text>
<text text-anchor="start" x="272.5" y="-306.9" font-family="Times,serif" font-size="14.00">update</text>
<polyline fill="none" stroke="black" points="264.5,-301.5 482.5,-301.5 "/>
<polyline fill="none" stroke="black" points="264.5,-277.5 482.5,-277.5 "/>
<text text-anchor="start" x="272.5" y="-260.9" font-family="Times,serif" font-size="14.00">_layout</text>
<text text-anchor="start" x="272.5" y="-246.9" font-family="Times,serif" font-size="14.00">_run_process_action_callbacks</text>
</g>
</g>
</svg>
