<?xml version="1.0" encoding="UTF-8" standalone="no"?>
<!DOCTYPE svg PUBLIC "-//W3C//DTD SVG 1.1//EN"
 "http://www.w3.org/Graphics/SVG/1.1/DTD/svg11.dtd">
<!-- Generated by graphviz version 2.24.0 (20090616.2323)
 -->
<!-- Title: controllers_diagram Pages: 1 -->
<svg width="847pt" height="943pt"
 viewBox="0.00 0.00 847.00 943.00" xmlns="http://www.w3.org/2000/svg" xmlns:xlink="http://www.w3.org/1999/xlink">
<g id="graph1" class="graph" transform="scale(1 1) rotate(0) translate(4 939)">
<title>controllers_diagram</title>
<polygon fill="white" stroke="white" points="-4,5 -4,-939 844,-939 844,5 -4,5"/>
<!-- _diagram_info -->

<!-- AdminController -->
<g id="node2" class="node"><title>AdminController</title>
<polyline fill="none" stroke="black" points="373,-1.5 556,-1.5 "/>
<path fill="none" stroke="black" d="M556,-1.5C562,-1.5 568,-7.5 568,-13.5"/>
<polyline fill="none" stroke="black" points="568,-13.5 568,-177.5 "/>
<path fill="none" stroke="black" d="M568,-177.5C568,-183.5 562,-189.5 556,-189.5"/>
<polyline fill="none" stroke="black" points="556,-189.5 373,-189.5 "/>
<path fill="none" stroke="black" d="M373,-189.5C367,-189.5 361,-183.5 361,-177.5"/>
<polyline fill="none" stroke="black" points="361,-177.5 361,-13.5 "/>
<path fill="none" stroke="black" d="M361,-13.5C361,-7.5 367,-1.5 373,-1.5"/>
<text text-anchor="middle" x="464.5" y="-172.9" font-family="Times,serif" font-size="14.00">AdminController</text>
<polyline fill="none" stroke="black" points="361,-167.5 568,-167.5 "/>
<text text-anchor="start" x="369" y="-150.9" font-family="Times,serif" font-size="14.00">_one_time_conditions_valid_52?</text>
<text text-anchor="start" x="369" y="-136.9" font-family="Times,serif" font-size="14.00">delete_user</text>
<text text-anchor="start" x="369" y="-122.9" font-family="Times,serif" font-size="14.00">grant_admin_rights</text>
<text text-anchor="start" x="369" y="-108.9" font-family="Times,serif" font-size="14.00">grant_user_rights</text>
<text text-anchor="start" x="369" y="-94.9" font-family="Times,serif" font-size="14.00">index</text>
<text text-anchor="start" x="369" y="-80.9" font-family="Times,serif" font-size="14.00">no_rights</text>
<polyline fill="none" stroke="black" points="361,-75.5 568,-75.5 "/>
<polyline fill="none" stroke="black" points="361,-51.5 568,-51.5 "/>
<text text-anchor="start" x="369" y="-34.9" font-family="Times,serif" font-size="14.00">_layout</text>
<text text-anchor="start" x="369" y="-20.9" font-family="Times,serif" font-size="14.00">_run_process_action_callbacks</text>
<text text-anchor="start" x="369" y="-6.9" font-family="Times,serif" font-size="14.00">authorize</text>
</g>
<!-- ApplicationController -->
<g id="node3" class="node"><title>ApplicationController</title>
<polyline fill="none" stroke="black" points="540.5,-553.5 726.5,-553.5 "/>
<path fill="none" stroke="black" d="M726.5,-553.5C732.5,-553.5 738.5,-559.5 738.5,-565.5"/>
<polyline fill="none" stroke="black" points="738.5,-565.5 738.5,-783.5 "/>
<path fill="none" stroke="black" d="M738.5,-783.5C738.5,-789.5 732.5,-795.5 726.5,-795.5"/>
<polyline fill="none" stroke="black" points="726.5,-795.5 540.5,-795.5 "/>
<path fill="none" stroke="black" d="M540.5,-795.5C534.5,-795.5 528.5,-789.5 528.5,-783.5"/>
<polyline fill="none" stroke="black" points="528.5,-783.5 528.5,-565.5 "/>
<path fill="none" stroke="black" d="M528.5,-565.5C528.5,-559.5 534.5,-553.5 540.5,-553.5"/>
<text text-anchor="middle" x="633.5" y="-778.9" font-family="Times,serif" font-size="14.00">ApplicationController</text>
<polyline fill="none" stroke="black" points="528.5,-773.5 738.5,-773.5 "/>
<text text-anchor="start" x="536.5" y="-756.9" font-family="Times,serif" font-size="14.00">_one_time_conditions_valid_42?</text>
<text text-anchor="start" x="536.5" y="-742.9" font-family="Times,serif" font-size="14.00">_one_time_conditions_valid_44?</text>
<text text-anchor="start" x="536.5" y="-728.9" font-family="Times,serif" font-size="14.00">_one_time_conditions_valid_46?</text>
<text text-anchor="start" x="536.5" y="-714.9" font-family="Times,serif" font-size="14.00">_one_time_conditions_valid_48?</text>
<text text-anchor="start" x="536.5" y="-700.9" font-family="Times,serif" font-size="14.00">_one_time_conditions_valid_50?</text>
<polyline fill="none" stroke="black" points="528.5,-695.5 738.5,-695.5 "/>
<text text-anchor="start" x="536.5" y="-678.9" font-family="Times,serif" font-size="14.00">current_datacenter</text>
<text text-anchor="start" x="536.5" y="-664.9" font-family="Times,serif" font-size="14.00">current_device</text>
<text text-anchor="start" x="536.5" y="-650.9" font-family="Times,serif" font-size="14.00">current_server_rack</text>
<text text-anchor="start" x="536.5" y="-636.9" font-family="Times,serif" font-size="14.00">get_all_datacenters</text>
<text text-anchor="start" x="536.5" y="-622.9" font-family="Times,serif" font-size="14.00">is_iphone_request?</text>
<text text-anchor="start" x="536.5" y="-608.9" font-family="Times,serif" font-size="14.00">set_iphone_format</text>
<polyline fill="none" stroke="black" points="528.5,-603.5 738.5,-603.5 "/>
<text text-anchor="start" x="536.5" y="-586.9" font-family="Times,serif" font-size="14.00">_layout</text>
<text text-anchor="start" x="536.5" y="-572.9" font-family="Times,serif" font-size="14.00">_run_process_action_callbacks</text>
<text text-anchor="start" x="536.5" y="-558.9" font-family="Times,serif" font-size="14.00">authorize</text>
</g>
<!-- CompaniesController -->
<g id="node4" class="node"><title>CompaniesController</title>
<polyline fill="none" stroke="black" points="276.5,-553.5 460.5,-553.5 "/>
<path fill="none" stroke="black" d="M460.5,-553.5C466.5,-553.5 472.5,-559.5 472.5,-565.5"/>
<polyline fill="none" stroke="black" points="472.5,-565.5 472.5,-743.5 "/>
<path fill="none" stroke="black" d="M472.5,-743.5C472.5,-749.5 466.5,-755.5 460.5,-755.5"/>
<polyline fill="none" stroke="black" points="460.5,-755.5 276.5,-755.5 "/>
<path fill="none" stroke="black" d="M276.5,-755.5C270.5,-755.5 264.5,-749.5 264.5,-743.5"/>
<polyline fill="none" stroke="black" points="264.5,-743.5 264.5,-565.5 "/>
<path fill="none" stroke="black" d="M264.5,-565.5C264.5,-559.5 270.5,-553.5 276.5,-553.5"/>
<text text-anchor="middle" x="368.5" y="-738.9" font-family="Times,serif" font-size="14.00">CompaniesController</text>
<polyline fill="none" stroke="black" points="264.5,-733.5 472.5,-733.5 "/>
<text text-anchor="start" x="272.5" y="-716.9" font-family="Times,serif" font-size="14.00">_one_time_conditions_valid_56?</text>
<text text-anchor="start" x="272.5" y="-702.9" font-family="Times,serif" font-size="14.00">create</text>
<text text-anchor="start" x="272.5" y="-688.9" font-family="Times,serif" font-size="14.00">destroy</text>
<text text-anchor="start" x="272.5" y="-674.9" font-family="Times,serif" font-size="14.00">edit</text>
<text text-anchor="start" x="272.5" y="-660.9" font-family="Times,serif" font-size="14.00">index</text>
<text text-anchor="start" x="272.5" y="-646.9" font-family="Times,serif" font-size="14.00">new</text>
<text text-anchor="start" x="272.5" y="-632.9" font-family="Times,serif" font-size="14.00">show</text>
<text text-anchor="start" x="272.5" y="-618.9" font-family="Times,serif" font-size="14.00">update</text>
<polyline fill="none" stroke="black" points="264.5,-613.5 472.5,-613.5 "/>
<polyline fill="none" stroke="black" points="264.5,-589.5 472.5,-589.5 "/>
<text text-anchor="start" x="272.5" y="-572.9" font-family="Times,serif" font-size="14.00">_layout</text>
<text text-anchor="start" x="272.5" y="-558.9" font-family="Times,serif" font-size="14.00">_run_process_action_callbacks</text>
</g>
<!-- DatacentersController -->
<g id="node5" class="node"><title>DatacentersController</title>
<polyline fill="none" stroke="black" points="13,-745.5 196,-745.5 "/>
<path fill="none" stroke="black" d="M196,-745.5C202,-745.5 208,-751.5 208,-757.5"/>
<polyline fill="none" stroke="black" points="208,-757.5 208,-921.5 "/>
<path fill="none" stroke="black" d="M208,-921.5C208,-927.5 202,-933.5 196,-933.5"/>
<polyline fill="none" stroke="black" points="196,-933.5 13,-933.5 "/>
<path fill="none" stroke="black" d="M13,-933.5C7,-933.5 1,-927.5 1,-921.5"/>
<polyline fill="none" stroke="black" points="1,-921.5 1,-757.5 "/>
<path fill="none" stroke="black" d="M1,-757.5C1,-751.5 7,-745.5 13,-745.5"/>
<text text-anchor="middle" x="104.5" y="-916.9" font-family="Times,serif" font-size="14.00">DatacentersController</text>
<polyline fill="none" stroke="black" points="1,-911.5 208,-911.5 "/>
<text text-anchor="start" x="9" y="-894.9" font-family="Times,serif" font-size="14.00">_one_time_conditions_valid_58?</text>
<text text-anchor="start" x="9" y="-880.9" font-family="Times,serif" font-size="14.00">create</text>
<text text-anchor="start" x="9" y="-866.9" font-family="Times,serif" font-size="14.00">destroy</text>
<text text-anchor="start" x="9" y="-852.9" font-family="Times,serif" font-size="14.00">edit</text>
<text text-anchor="start" x="9" y="-838.9" font-family="Times,serif" font-size="14.00">index</text>
<text text-anchor="start" x="9" y="-824.9" font-family="Times,serif" font-size="14.00">new</text>
<text text-anchor="start" x="9" y="-810.9" font-family="Times,serif" font-size="14.00">update</text>
<polyline fill="none" stroke="black" points="1,-805.5 208,-805.5 "/>
<polyline fill="none" stroke="black" points="1,-781.5 208,-781.5 "/>
<text text-anchor="start" x="9" y="-764.9" font-family="Times,serif" font-size="14.00">_layout</text>
<text text-anchor="start" x="9" y="-750.9" font-family="Times,serif" font-size="14.00">_run_process_action_callbacks</text>
</g>
<!-- DevicesController -->
<g id="node6" class="node"><title>DevicesController</title>
<polyline fill="none" stroke="black" points="517,-241.5 710,-241.5 "/>
<path fill="none" stroke="black" d="M710,-241.5C716,-241.5 722,-247.5 722,-253.5"/>
<polyline fill="none" stroke="black" points="722,-253.5 722,-487.5 "/>
<path fill="none" stroke="black" d="M722,-487.5C722,-493.5 716,-499.5 710,-499.5"/>
<polyline fill="none" stroke="black" points="710,-499.5 517,-499.5 "/>
<path fill="none" stroke="black" d="M517,-499.5C511,-499.5 505,-493.5 505,-487.5"/>
<polyline fill="none" stroke="black" points="505,-487.5 505,-253.5 "/>
<path fill="none" stroke="black" d="M505,-253.5C505,-247.5 511,-241.5 517,-241.5"/>
<text text-anchor="middle" x="613.5" y="-482.9" font-family="Times,serif" font-size="14.00">DevicesController</text>
<polyline fill="none" stroke="black" points="505,-477.5 722,-477.5 "/>
<text text-anchor="start" x="513" y="-460.9" font-family="Times,serif" font-size="14.00">_callback_around_211</text>
<text text-anchor="start" x="513" y="-446.9" font-family="Times,serif" font-size="14.00">_callback_around_211_object</text>
<text text-anchor="start" x="513" y="-432.9" font-family="Times,serif" font-size="14.00">_conditional_callback_around_215</text>
<text text-anchor="start" x="513" y="-418.9" font-family="Times,serif" font-size="14.00">_one_time_conditions_valid_212?</text>
<text text-anchor="start" x="513" y="-404.9" font-family="Times,serif" font-size="14.00">_one_time_conditions_valid_60?</text>
<text text-anchor="start" x="513" y="-390.9" font-family="Times,serif" font-size="14.00">collect_interfaces</text>
<text text-anchor="start" x="513" y="-376.9" font-family="Times,serif" font-size="14.00">create</text>
<text text-anchor="start" x="513" y="-362.9" font-family="Times,serif" font-size="14.00">destroy</text>
<text text-anchor="start" x="513" y="-348.9" font-family="Times,serif" font-size="14.00">edit</text>
<text text-anchor="start" x="513" y="-334.9" font-family="Times,serif" font-size="14.00">new</text>
<text text-anchor="start" x="513" y="-320.9" font-family="Times,serif" font-size="14.00">show</text>
<text text-anchor="start" x="513" y="-306.9" font-family="Times,serif" font-size="14.00">update</text>
<polyline fill="none" stroke="black" points="505,-301.5 722,-301.5 "/>
<polyline fill="none" stroke="black" points="505,-277.5 722,-277.5 "/>
<text text-anchor="start" x="513" y="-260.9" font-family="Times,serif" font-size="14.00">_layout</text>
<text text-anchor="start" x="513" y="-246.9" font-family="Times,serif" font-size="14.00">_run_process_action_callbacks</text>
</g>
<!-- InterfacesController -->
<g id="node7" class="node"><title>InterfacesController</title>
<polyline fill="none" stroke="black" points="637,-25.5 826,-25.5 "/>
<path fill="none" stroke="black" d="M826,-25.5C832,-25.5 838,-31.5 838,-37.5"/>
<polyline fill="none" stroke="black" points="838,-37.5 838,-187.5 "/>
<path fill="none" stroke="black" d="M838,-187.5C838,-193.5 832,-199.5 826,-199.5"/>
<polyline fill="none" stroke="black" points="826,-199.5 637,-199.5 "/>
<path fill="none" stroke="black" d="M637,-199.5C631,-199.5 625,-193.5 625,-187.5"/>
<polyline fill="none" stroke="black" points="625,-187.5 625,-37.5 "/>
<path fill="none" stroke="black" d="M625,-37.5C625,-31.5 631,-25.5 637,-25.5"/>
<text text-anchor="middle" x="731.5" y="-182.9" font-family="Times,serif" font-size="14.00">InterfacesController</text>
<polyline fill="none" stroke="black" points="625,-177.5 838,-177.5 "/>
<text text-anchor="start" x="633" y="-160.9" font-family="Times,serif" font-size="14.00">_one_time_conditions_valid_217?</text>
<text text-anchor="start" x="633" y="-146.9" font-family="Times,serif" font-size="14.00">create</text>
<text text-anchor="start" x="633" y="-132.9" font-family="Times,serif" font-size="14.00">destroy</text>
<text text-anchor="start" x="633" y="-118.9" font-family="Times,serif" font-size="14.00">edit</text>
<text text-anchor="start" x="633" y="-104.9" font-family="Times,serif" font-size="14.00">new</text>
<text text-anchor="start" x="633" y="-90.9" font-family="Times,serif" font-size="14.00">update</text>
<polyline fill="none" stroke="black" points="625,-85.5 838,-85.5 "/>
<polyline fill="none" stroke="black" points="625,-61.5 838,-61.5 "/>
<text text-anchor="start" x="633" y="-44.9" font-family="Times,serif" font-size="14.00">_layout</text>
<text text-anchor="start" x="633" y="-30.9" font-family="Times,serif" font-size="14.00">_run_process_action_callbacks</text>
</g>
<!-- SearchController -->
<g id="node8" class="node"><title>SearchController</title>
<polyline fill="none" stroke="black" points="36.5,-49.5 226.5,-49.5 "/>
<path fill="none" stroke="black" d="M226.5,-49.5C232.5,-49.5 238.5,-55.5 238.5,-61.5"/>
<polyline fill="none" stroke="black" points="238.5,-61.5 238.5,-183.5 "/>
<path fill="none" stroke="black" d="M238.5,-183.5C238.5,-189.5 232.5,-195.5 226.5,-195.5"/>
<polyline fill="none" stroke="black" points="226.5,-195.5 36.5,-195.5 "/>
<path fill="none" stroke="black" d="M36.5,-195.5C30.5,-195.5 24.5,-189.5 24.5,-183.5"/>
<polyline fill="none" stroke="black" points="24.5,-183.5 24.5,-61.5 "/>
<path fill="none" stroke="black" d="M24.5,-61.5C24.5,-55.5 30.5,-49.5 36.5,-49.5"/>
<text text-anchor="middle" x="131.5" y="-178.9" font-family="Times,serif" font-size="14.00">SearchController</text>
<polyline fill="none" stroke="black" points="24.5,-173.5 238.5,-173.5 "/>
<text text-anchor="start" x="32.5" y="-156.9" font-family="Times,serif" font-size="14.00">_one_time_conditions_valid_219?</text>
<text text-anchor="start" x="32.5" y="-142.9" font-family="Times,serif" font-size="14.00">company_names</text>
<text text-anchor="start" x="32.5" y="-128.9" font-family="Times,serif" font-size="14.00">find_colors</text>
<text text-anchor="start" x="32.5" y="-114.9" font-family="Times,serif" font-size="14.00">search</text>
<polyline fill="none" stroke="black" points="24.5,-109.5 238.5,-109.5 "/>
<polyline fill="none" stroke="black" points="24.5,-85.5 238.5,-85.5 "/>
<text text-anchor="start" x="32.5" y="-68.9" font-family="Times,serif" font-size="14.00">_layout</text>
<text text-anchor="start" x="32.5" y="-54.9" font-family="Times,serif" font-size="14.00">_run_process_action_callbacks</text>
</g>
<!-- ServerRacksController -->
<g id="node9" class="node"><title>ServerRacksController</title>
<polyline fill="none" stroke="black" points="253,-241.5 446,-241.5 "/>
<path fill="none" stroke="black" d="M446,-241.5C452,-241.5 458,-247.5 458,-253.5"/>
<polyline fill="none" stroke="black" points="458,-253.5 458,-501.5 "/>
<path fill="none" stroke="black" d="M458,-501.5C458,-507.5 452,-513.5 446,-513.5"/>
<polyline fill="none" stroke="black" points="446,-513.5 253,-513.5 "/>
<path fill="none" stroke="black" d="M253,-513.5C247,-513.5 241,-507.5 241,-501.5"/>
<polyline fill="none" stroke="black" points="241,-501.5 241,-253.5 "/>
<path fill="none" stroke="black" d="M241,-253.5C241,-247.5 247,-241.5 253,-241.5"/>
<text text-anchor="middle" x="349.5" y="-496.9" font-family="Times,serif" font-size="14.00">ServerRacksController</text>
<polyline fill="none" stroke="black" points="241,-491.5 458,-491.5 "/>
<text text-anchor="start" x="249" y="-474.9" font-family="Times,serif" font-size="14.00">_callback_around_228</text>
<text text-anchor="start" x="249" y="-460.9" font-family="Times,serif" font-size="14.00">_callback_around_228_object</text>
<text text-anchor="start" x="249" y="-446.9" font-family="Times,serif" font-size="14.00">_conditional_callback_around_232</text>
<text text-anchor="start" x="249" y="-432.9" font-family="Times,serif" font-size="14.00">_conditional_callback_around_235</text>
<text text-anchor="start" x="249" y="-418.9" font-family="Times,serif" font-size="14.00">_one_time_conditions_valid_229?</text>
<text text-anchor="start" x="249" y="-404.9" font-family="Times,serif" font-size="14.00">_one_time_conditions_valid_234?</text>
<text text-anchor="start" x="249" y="-390.9" font-family="Times,serif" font-size="14.00">create</text>
<text text-anchor="start" x="249" y="-376.9" font-family="Times,serif" font-size="14.00">destroy</text>
<text text-anchor="start" x="249" y="-362.9" font-family="Times,serif" font-size="14.00">edit</text>
<text text-anchor="start" x="249" y="-348.9" font-family="Times,serif" font-size="14.00">index</text>
<text text-anchor="start" x="249" y="-334.9" font-family="Times,serif" font-size="14.00">new</text>
<text text-anchor="start" x="249" y="-320.9" font-family="Times,serif" font-size="14.00">show</text>
<text text-anchor="start" x="249" y="-306.9" font-family="Times,serif" font-size="14.00">update</text>
<polyline fill="none" stroke="black" points="241,-301.5 458,-301.5 "/>
<polyline fill="none" stroke="black" points="241,-277.5 458,-277.5 "/>
<text text-anchor="start" x="249" y="-260.9" font-family="Times,serif" font-size="14.00">_layout</text>
<text text-anchor="start" x="249" y="-246.9" font-family="Times,serif" font-size="14.00">_run_process_action_callbacks</text>
</g>
</g>
</svg>
