<?xml version="1.0" encoding="UTF-8" standalone="no"?>
<!DOCTYPE svg PUBLIC "-//W3C//DTD SVG 1.1//EN"
 "http://www.w3.org/Graphics/SVG/1.1/DTD/svg11.dtd">
<!-- Generated by graphviz version 2.24.0 (20090616.2323)
 -->
<!-- Title: models_diagram Pages: 1 -->
<svg width="740pt" height="706pt"
 viewBox="0.00 0.00 740.00 706.00" xmlns="http://www.w3.org/2000/svg" xmlns:xlink="http://www.w3.org/1999/xlink">
<g id="graph1" class="graph" transform="scale(1 1) rotate(0) translate(4 702)">
<title>models_diagram</title>
<polygon fill="white" stroke="white" points="-4,5 -4,-702 737,-702 737,5 -4,5"/>
<!-- _diagram_info -->

<!-- CableConnection -->
<g id="node2" class="node"><title>CableConnection</title>
<polyline fill="none" stroke="black" points="243.5,-520 354.5,-520 "/>
<path fill="none" stroke="black" d="M354.5,-520C360.5,-520 366.5,-561 366.5,-567"/>
<polyline fill="none" stroke="black" points="366.5,-567 366.5,-615 "/>
<path fill="none" stroke="black" d="M366.5,-615C366.5,-621 360.5,-627 354.5,-627"/>
<polyline fill="none" stroke="black" points="354.5,-627 243.5,-627 "/>
<path fill="none" stroke="black" d="M243.5,-627C237.5,-627 231.5,-621 231.5,-615"/>
<polyline fill="none" stroke="black" points="231.5,-615 231.5,-567 "/>
<path fill="none" stroke="black" d="M231.5,-567C231.5,-561 237.5,-520 243.5,-520"/>
<text text-anchor="middle" x="299" y="-610.4" font-family="Times,serif" font-size="14.00">CableConnection</text>
<polyline fill="none" stroke="black" points="231.5,-605 366.5,-605 "/>
<text text-anchor="start" x="239.5" y="-588.4" font-family="Times,serif" font-size="14.00">color :string</text>
<text text-anchor="start" x="239.5" y="-574.4" font-family="Times,serif" font-size="14.00">left_interface :integer</text>
<text text-anchor="start" x="239.5" y="-560.4" font-family="Times,serif" font-size="14.00">right_interface :integer</text>
<text text-anchor="start" x="239.5" y="-546.4" font-family="Times,serif" font-size="14.00">created_at :datetime</text>
<text text-anchor="start" x="239.5" y="-532.4" font-family="Times,serif" font-size="14.00">updated_at :datetime</text>
</g>
<!-- Company -->
<g id="node3" class="node"><title>Company</title>
<polyline fill="none" stroke="black" points="243.5,-263 354.5,-263 "/>
<path fill="none" stroke="black" d="M354.5,-263C360.5,-263 366.5,-269 366.5,-275"/>
<polyline fill="none" stroke="black" points="366.5,-275 366.5,-435 "/>
<path fill="none" stroke="black" d="M366.5,-435C366.5,-441 360.5,-447 354.5,-447"/>
<polyline fill="none" stroke="black" points="354.5,-447 243.5,-447 "/>
<path fill="none" stroke="black" d="M243.5,-447C237.5,-447 231.5,-441 231.5,-435"/>
<polyline fill="none" stroke="black" points="231.5,-435 231.5,-275 "/>
<path fill="none" stroke="black" d="M231.5,-275C231.5,-269 237.5,-263 243.5,-263"/>
<text text-anchor="middle" x="299" y="-430.4" font-family="Times,serif" font-size="14.00">Company</text>
<polyline fill="none" stroke="black" points="231.5,-425 366.5,-425 "/>
<text text-anchor="start" x="239.5" y="-408.4" font-family="Times,serif" font-size="14.00">name :string</text>
<text text-anchor="start" x="239.5" y="-394.4" font-family="Times,serif" font-size="14.00">address :string</text>
<text text-anchor="start" x="239.5" y="-380.4" font-family="Times,serif" font-size="14.00">postal_code :string</text>
<text text-anchor="start" x="239.5" y="-366.4" font-family="Times,serif" font-size="14.00">city :string</text>
<text text-anchor="start" x="239.5" y="-352.4" font-family="Times,serif" font-size="14.00">telephone :string</text>
<text text-anchor="start" x="239.5" y="-338.4" font-family="Times,serif" font-size="14.00">url :string</text>
<text text-anchor="start" x="239.5" y="-324.4" font-family="Times,serif" font-size="14.00">btw_nr :string</text>
<text text-anchor="start" x="239.5" y="-310.4" font-family="Times,serif" font-size="14.00">comment :string</text>
<text text-anchor="start" x="239.5" y="-296.4" font-family="Times,serif" font-size="14.00">created_at :datetime</text>
<text text-anchor="start" x="239.5" y="-282.4" font-family="Times,serif" font-size="14.00">updated_at :datetime</text>
<text text-anchor="start" x="239.5" y="-268.4" font-family="Times,serif" font-size="14.00">email :string</text>
</g>
<!-- Device -->
<g id="node5" class="node"><title>Device</title>
<polyline fill="none" stroke="black" points="271.5,-125 382.5,-125 "/>
<path fill="none" stroke="black" d="M382.5,-125C388.5,-125 394.5,-131 394.5,-137"/>
<polyline fill="none" stroke="black" points="394.5,-137 394.5,-213 "/>
<path fill="none" stroke="black" d="M394.5,-213C394.5,-219 388.5,-225 382.5,-225"/>
<polyline fill="none" stroke="black" points="382.5,-225 271.5,-225 "/>
<path fill="none" stroke="black" d="M271.5,-225C265.5,-225 259.5,-219 259.5,-213"/>
<polyline fill="none" stroke="black" points="259.5,-213 259.5,-137 "/>
<path fill="none" stroke="black" d="M259.5,-137C259.5,-131 265.5,-125 271.5,-125"/>
<text text-anchor="middle" x="327" y="-208.4" font-family="Times,serif" font-size="14.00">Device</text>
<polyline fill="none" stroke="black" points="259.5,-203 394.5,-203 "/>
<text text-anchor="start" x="267.5" y="-186.4" font-family="Times,serif" font-size="14.00">device_type :integer</text>
<text text-anchor="start" x="267.5" y="-172.4" font-family="Times,serif" font-size="14.00">name :string</text>
<text text-anchor="start" x="267.5" y="-158.4" font-family="Times,serif" font-size="14.00">comment :string</text>
<text text-anchor="start" x="267.5" y="-144.4" font-family="Times,serif" font-size="14.00">created_at :datetime</text>
<text text-anchor="start" x="267.5" y="-130.4" font-family="Times,serif" font-size="14.00">updated_at :datetime</text>
</g>
<!-- Company&#45;&gt;Device -->
<g id="edge2" class="edge"><title>Company&#45;&gt;Device</title>
<path fill="none" stroke="black" d="M314.884,-252.886C315.813,-246.915 316.731,-241.016 317.62,-235.298"/>
<polygon fill="black" stroke="black" points="314.865,-253.01 308.882,-262.199 314.097,-257.95 313.328,-262.891 313.328,-262.891 313.328,-262.891 314.097,-257.95 317.775,-263.583 314.865,-253.01 314.865,-253.01"/>
<polygon fill="black" stroke="black" points="317.65,-235.103 323.634,-225.914 318.419,-230.163 319.188,-225.222 319.188,-225.222 319.188,-225.222 318.419,-230.163 314.741,-224.531 317.65,-235.103 317.65,-235.103"/>
</g>
<!-- Datacenter -->
<g id="node4" class="node"><title>Datacenter</title>
<polyline fill="none" stroke="black" points="395.5,-541 506.5,-541 "/>
<path fill="none" stroke="black" d="M506.5,-541C512.5,-541 518.5,-547 518.5,-553"/>
<polyline fill="none" stroke="black" points="518.5,-553 518.5,-629 "/>
<path fill="none" stroke="black" d="M518.5,-629C518.5,-635 512.5,-641 506.5,-641"/>
<polyline fill="none" stroke="black" points="506.5,-641 395.5,-641 "/>
<path fill="none" stroke="black" d="M395.5,-641C389.5,-641 383.5,-635 383.5,-629"/>
<polyline fill="none" stroke="black" points="383.5,-629 383.5,-553 "/>
<path fill="none" stroke="black" d="M383.5,-553C383.5,-547 389.5,-541 395.5,-541"/>
<text text-anchor="middle" x="451" y="-624.4" font-family="Times,serif" font-size="14.00">Datacenter</text>
<polyline fill="none" stroke="black" points="383.5,-619 518.5,-619 "/>
<text text-anchor="start" x="391.5" y="-602.4" font-family="Times,serif" font-size="14.00">name :string</text>
<text text-anchor="start" x="391.5" y="-588.4" font-family="Times,serif" font-size="14.00">location :string</text>
<text text-anchor="start" x="391.5" y="-574.4" font-family="Times,serif" font-size="14.00">comment :string</text>
<text text-anchor="start" x="391.5" y="-560.4" font-family="Times,serif" font-size="14.00">created_at :datetime</text>
<text text-anchor="start" x="391.5" y="-546.4" font-family="Times,serif" font-size="14.00">updated_at :datetime</text>
</g>
<!-- ServerRack -->
<g id="node7" class="node"><title>ServerRack</title>
<polyline fill="none" stroke="black" points="395.5,-312 506.5,-312 "/>
<path fill="none" stroke="black" d="M506.5,-312C512.5,-312 518.5,-318 518.5,-324"/>
<polyline fill="none" stroke="black" points="518.5,-324 518.5,-386 "/>
<path fill="none" stroke="black" d="M518.5,-386C518.5,-392 512.5,-398 506.5,-398"/>
<polyline fill="none" stroke="black" points="506.5,-398 395.5,-398 "/>
<path fill="none" stroke="black" d="M395.5,-398C389.5,-398 383.5,-392 383.5,-386"/>
<polyline fill="none" stroke="black" points="383.5,-386 383.5,-324 "/>
<path fill="none" stroke="black" d="M383.5,-324C383.5,-318 389.5,-312 395.5,-312"/>
<text text-anchor="middle" x="451" y="-381.4" font-family="Times,serif" font-size="14.00">ServerRack</text>
<polyline fill="none" stroke="black" points="383.5,-376 518.5,-376 "/>
<text text-anchor="start" x="391.5" y="-359.4" font-family="Times,serif" font-size="14.00">name :string</text>
<text text-anchor="start" x="391.5" y="-345.4" font-family="Times,serif" font-size="14.00">comment :string</text>
<text text-anchor="start" x="391.5" y="-331.4" font-family="Times,serif" font-size="14.00">created_at :datetime</text>
<text text-anchor="start" x="391.5" y="-317.4" font-family="Times,serif" font-size="14.00">updated_at :datetime</text>
</g>
<!-- Datacenter&#45;&gt;ServerRack -->
<g id="edge4" class="edge"><title>Datacenter&#45;&gt;ServerRack</title>
<path fill="none" stroke="black" d="M451,-532.811C451,-494.748 451,-445.397 451,-408.347"/>
<ellipse fill="none" stroke="black" cx="451" cy="-536.95" rx="4" ry="4"/>
<polygon fill="black" stroke="black" points="451,-408.243 455.5,-398.243 451,-403.243 451,-398.243 451,-398.243 451,-398.243 451,-403.243 446.5,-398.243 451,-408.243 451,-408.243"/>
</g>
<!-- Interface -->
<g id="node6" class="node"><title>Interface</title>
<polyline fill="none" stroke="black" points="233.5,-1 354.5,-1 "/>
<path fill="none" stroke="black" d="M354.5,-1C360.5,-1 366.5,-7 366.5,-13"/>
<polyline fill="none" stroke="black" points="366.5,-13 366.5,-75 "/>
<path fill="none" stroke="black" d="M366.5,-75C366.5,-81 360.5,-87 354.5,-87"/>
<polyline fill="none" stroke="black" points="354.5,-87 233.5,-87 "/>
<path fill="none" stroke="black" d="M233.5,-87C227.5,-87 221.5,-81 221.5,-75"/>
<polyline fill="none" stroke="black" points="221.5,-75 221.5,-13 "/>
<path fill="none" stroke="black" d="M221.5,-13C221.5,-7 227.5,-1 233.5,-1"/>
<text text-anchor="middle" x="294" y="-70.4" font-family="Times,serif" font-size="14.00">Interface</text>
<polyline fill="none" stroke="black" points="221.5,-65 366.5,-65 "/>
<text text-anchor="start" x="229.5" y="-48.4" font-family="Times,serif" font-size="14.00">interface_type :integer</text>
<text text-anchor="start" x="229.5" y="-34.4" font-family="Times,serif" font-size="14.00">name :string</text>
<text text-anchor="start" x="229.5" y="-20.4" font-family="Times,serif" font-size="14.00">created_at :datetime</text>
<text text-anchor="start" x="229.5" y="-6.4" font-family="Times,serif" font-size="14.00">updated_at :datetime</text>
</g>
<!-- Device&#45;&gt;Interface -->
<g id="edge8" class="edge"><title>Device&#45;&gt;Interface</title>
<path fill="none" stroke="black" d="M312.336,-116.788C310.686,-110.237 309.011,-103.588 307.378,-97.1067"/>
<ellipse fill="none" stroke="black" cx="313.359" cy="-120.848" rx="4.00001" ry="4.00001"/>
<polygon fill="black" stroke="black" points="307.3,-96.7955 309.221,-85.9992 306.078,-91.947 304.857,-87.0984 304.857,-87.0984 304.857,-87.0984 306.078,-91.947 300.493,-88.1977 307.3,-96.7955 307.3,-96.7955"/>
</g>
<!-- Unit -->
<g id="node8" class="node"><title>Unit</title>
<polyline fill="none" stroke="black" points="395.5,-8 506.5,-8 "/>
<path fill="none" stroke="black" d="M506.5,-8C512.5,-8 518.5,-14 518.5,-20"/>
<polyline fill="none" stroke="black" points="518.5,-20 518.5,-68 "/>
<path fill="none" stroke="black" d="M518.5,-68C518.5,-74 512.5,-80 506.5,-80"/>
<polyline fill="none" stroke="black" points="506.5,-80 395.5,-80 "/>
<path fill="none" stroke="black" d="M395.5,-80C389.5,-80 383.5,-74 383.5,-68"/>
<polyline fill="none" stroke="black" points="383.5,-68 383.5,-20 "/>
<path fill="none" stroke="black" d="M383.5,-20C383.5,-14 389.5,-8 395.5,-8"/>
<text text-anchor="middle" x="451" y="-63.4" font-family="Times,serif" font-size="14.00">Unit</text>
<polyline fill="none" stroke="black" points="383.5,-58 518.5,-58 "/>
<text text-anchor="start" x="391.5" y="-41.4" font-family="Times,serif" font-size="14.00">number :integer</text>
<text text-anchor="start" x="391.5" y="-27.4" font-family="Times,serif" font-size="14.00">created_at :datetime</text>
<text text-anchor="start" x="391.5" y="-13.4" font-family="Times,serif" font-size="14.00">updated_at :datetime</text>
</g>
<!-- Device&#45;&gt;Unit -->
<g id="edge6" class="edge"><title>Device&#45;&gt;Unit</title>
<path fill="none" stroke="black" d="M380.241,-118.754C390.118,-108.319 400.297,-97.5648 409.75,-87.579"/>
<ellipse fill="none" stroke="black" cx="377.337" cy="-121.822" rx="4.00002" ry="4.00002"/>
<polygon fill="black" stroke="black" points="409.945,-87.373 420.087,-83.204 413.382,-83.7418 416.819,-80.1106 416.819,-80.1106 416.819,-80.1106 413.382,-83.7418 413.551,-77.0171 409.945,-87.373 409.945,-87.373"/>
</g>
<!-- ServerRack&#45;&gt;Device -->
<g id="edge12" class="edge"><title>ServerRack&#45;&gt;Device</title>
<path fill="none" stroke="black" d="M415.452,-303.398C400.427,-281.587 382.851,-256.075 367.343,-233.563"/>
<polygon fill="black" stroke="black" points="415.626,-303.65 417.593,-314.438 418.462,-307.768 421.299,-311.886 421.299,-311.886 421.299,-311.886 418.462,-307.768 425.005,-309.333 415.626,-303.65 415.626,-303.65"/>
<polygon fill="black" stroke="black" points="367.184,-233.331 365.216,-222.543 364.347,-229.214 361.511,-225.096 361.511,-225.096 361.511,-225.096 364.347,-229.214 357.805,-227.649 367.184,-233.331 367.184,-233.331"/>
</g>
<!-- ServerRack&#45;&gt;Unit -->
<g id="edge10" class="edge"><title>ServerRack&#45;&gt;Unit</title>
<path fill="none" stroke="black" d="M451,-303.525C451,-244.146 451,-147.388 451,-90.2938"/>
<ellipse fill="none" stroke="black" cx="451" cy="-307.757" rx="4" ry="4"/>
<polygon fill="black" stroke="black" points="451,-90.1127 455.5,-80.1127 451,-85.1127 451,-80.1127 451,-80.1127 451,-80.1127 451,-85.1127 446.5,-80.1128 451,-90.1127 451,-90.1127"/>
</g>
<!-- User -->
<g id="node9" class="node"><title>User</title>
<polyline fill="none" stroke="black" points="547.5,-485 720.5,-485 "/>
<path fill="none" stroke="black" d="M720.5,-485C726.5,-485 732.5,-491 732.5,-497"/>
<polyline fill="none" stroke="black" points="732.5,-497 732.5,-685 "/>
<path fill="none" stroke="black" d="M732.5,-685C732.5,-691 726.5,-697 720.5,-697"/>
<polyline fill="none" stroke="black" points="720.5,-697 547.5,-697 "/>
<path fill="none" stroke="black" d="M547.5,-697C541.5,-697 535.5,-691 535.5,-685"/>
<polyline fill="none" stroke="black" points="535.5,-685 535.5,-497 "/>
<path fill="none" stroke="black" d="M535.5,-497C535.5,-491 541.5,-485 547.5,-485"/>
<text text-anchor="middle" x="634" y="-680.4" font-family="Times,serif" font-size="14.00">User</text>
<polyline fill="none" stroke="black" points="535.5,-675 732.5,-675 "/>
<text text-anchor="start" x="543.5" y="-658.4" font-family="Times,serif" font-size="14.00">email :string</text>
<text text-anchor="start" x="543.5" y="-644.4" font-family="Times,serif" font-size="14.00">encrypted_password :string</text>
<text text-anchor="start" x="543.5" y="-630.4" font-family="Times,serif" font-size="14.00">password_salt :string</text>
<text text-anchor="start" x="543.5" y="-616.4" font-family="Times,serif" font-size="14.00">reset_password_token :string</text>
<text text-anchor="start" x="543.5" y="-602.4" font-family="Times,serif" font-size="14.00">remember_token :string</text>
<text text-anchor="start" x="543.5" y="-588.4" font-family="Times,serif" font-size="14.00">remember_created_at :datetime</text>
<text text-anchor="start" x="543.5" y="-574.4" font-family="Times,serif" font-size="14.00">current_sign_in_at :datetime</text>
<text text-anchor="start" x="543.5" y="-560.4" font-family="Times,serif" font-size="14.00">last_sign_in_at :datetime</text>
<text text-anchor="start" x="543.5" y="-546.4" font-family="Times,serif" font-size="14.00">current_sign_in_ip :string</text>
<text text-anchor="start" x="543.5" y="-532.4" font-family="Times,serif" font-size="14.00">last_sign_in_ip :string</text>
<text text-anchor="start" x="543.5" y="-518.4" font-family="Times,serif" font-size="14.00">created_at :datetime</text>
<text text-anchor="start" x="543.5" y="-504.4" font-family="Times,serif" font-size="14.00">updated_at :datetime</text>
<text text-anchor="start" x="543.5" y="-490.4" font-family="Times,serif" font-size="14.00">rights :string</text>
</g>
</g>
</svg>
