<?xml version="1.0" encoding="UTF-8" standalone="no"?>
<!DOCTYPE svg PUBLIC "-//W3C//DTD SVG 1.1//EN"
 "http://www.w3.org/Graphics/SVG/1.1/DTD/svg11.dtd">
<!-- Generated by graphviz version 2.24.0 (20090616.2323)
 -->
<!-- Title: models_diagram Pages: 1 -->
<svg width="742pt" height="720pt"
 viewBox="0.00 0.00 742.00 720.00" xmlns="http://www.w3.org/2000/svg" xmlns:xlink="http://www.w3.org/1999/xlink">
<g id="graph1" class="graph" transform="scale(1 1) rotate(0) translate(4 716)">
<title>models_diagram</title>
<polygon fill="white" stroke="white" points="-4,5 -4,-716 739,-716 739,5 -4,5"/>

<!-- CableConnection -->
<g id="node2" class="node"><title>CableConnection</title>
<polyline fill="none" stroke="black" points="245.5,-569 356.5,-569 "/>
<path fill="none" stroke="black" d="M356.5,-569C362.5,-569 368.5,-575 368.5,-581"/>
<polyline fill="none" stroke="black" points="368.5,-581 368.5,-629 "/>
<path fill="none" stroke="black" d="M368.5,-629C368.5,-635 362.5,-641 356.5,-641"/>
<polyline fill="none" stroke="black" points="356.5,-641 245.5,-641 "/>
<path fill="none" stroke="black" d="M245.5,-641C239.5,-641 233.5,-635 233.5,-629"/>
<polyline fill="none" stroke="black" points="233.5,-629 233.5,-581 "/>
<path fill="none" stroke="black" d="M233.5,-581C233.5,-575 239.5,-569 245.5,-569"/>
<text text-anchor="middle" x="301" y="-624.4" font-family="Times,serif" font-size="14.00">CableConnection</text>
<polyline fill="none" stroke="black" points="233.5,-619 368.5,-619 "/>
<text text-anchor="start" x="241.5" y="-602.4" font-family="Times,serif" font-size="14.00">color :string</text>
<text text-anchor="start" x="241.5" y="-588.4" font-family="Times,serif" font-size="14.00">created_at :datetime</text>
<text text-anchor="start" x="241.5" y="-574.4" font-family="Times,serif" font-size="14.00">updated_at :datetime</text>
</g>
<!-- Company -->
<g id="node3" class="node"><title>Company</title>
<polyline fill="none" stroke="black" points="215.5,-263 356.5,-263 "/>
<path fill="none" stroke="black" d="M356.5,-263C362.5,-263 368.5,-269 368.5,-275"/>
<polyline fill="none" stroke="black" points="368.5,-275 368.5,-449 "/>
<path fill="none" stroke="black" d="M368.5,-449C368.5,-455 362.5,-461 356.5,-461"/>
<polyline fill="none" stroke="black" points="356.5,-461 215.5,-461 "/>
<path fill="none" stroke="black" d="M215.5,-461C209.5,-461 203.5,-455 203.5,-449"/>
<polyline fill="none" stroke="black" points="203.5,-449 203.5,-275 "/>
<path fill="none" stroke="black" d="M203.5,-275C203.5,-269 209.5,-263 215.5,-263"/>
<text text-anchor="middle" x="286" y="-444.4" font-family="Times,serif" font-size="14.00">Company</text>
<polyline fill="none" stroke="black" points="203.5,-439 368.5,-439 "/>
<text text-anchor="start" x="211.5" y="-422.4" font-family="Times,serif" font-size="14.00">name :string</text>
<text text-anchor="start" x="211.5" y="-408.4" font-family="Times,serif" font-size="14.00">address :string</text>
<text text-anchor="start" x="211.5" y="-394.4" font-family="Times,serif" font-size="14.00">postal_code :string</text>
<text text-anchor="start" x="211.5" y="-380.4" font-family="Times,serif" font-size="14.00">city :string</text>
<text text-anchor="start" x="211.5" y="-366.4" font-family="Times,serif" font-size="14.00">telephone :string</text>
<text text-anchor="start" x="211.5" y="-352.4" font-family="Times,serif" font-size="14.00">url :string</text>
<text text-anchor="start" x="211.5" y="-338.4" font-family="Times,serif" font-size="14.00">btw_nr :string</text>
<text text-anchor="start" x="211.5" y="-324.4" font-family="Times,serif" font-size="14.00">comment :string</text>
<text text-anchor="start" x="211.5" y="-310.4" font-family="Times,serif" font-size="14.00">created_at :datetime</text>
<text text-anchor="start" x="211.5" y="-296.4" font-family="Times,serif" font-size="14.00">updated_at :datetime</text>
<text text-anchor="start" x="211.5" y="-282.4" font-family="Times,serif" font-size="14.00">email :string</text>
<text text-anchor="start" x="211.5" y="-268.4" font-family="Times,serif" font-size="14.00">customer_number :integer</text>
</g>
<!-- Device -->
<g id="node5" class="node"><title>Device</title>
<polyline fill="none" stroke="black" points="271.5,-125 382.5,-125 "/>
<path fill="none" stroke="black" d="M382.5,-125C388.5,-125 394.5,-131 394.5,-137"/>
<polyline fill="none" stroke="black" points="394.5,-137 394.5,-213 "/>
<path fill="none" stroke="black" d="M394.5,-213C394.5,-219 388.5,-225 382.5,-225"/>
<polyline fill="none" stroke="black" points="382.5,-225 271.5,-225 "/>
<path fill="none" stroke="black" d="M271.5,-225C265.5,-225 259.5,-219 259.5,-213"/>
<polyline fill="none" stroke="black" points="259.5,-213 259.5,-137 "/>
<path fill="none" stroke="black" d="M259.5,-137C259.5,-131 265.5,-125 271.5,-125"/>
<text text-anchor="middle" x="327" y="-208.4" font-family="Times,serif" font-size="14.00">Device</text>
<polyline fill="none" stroke="black" points="259.5,-203 394.5,-203 "/>
<text text-anchor="start" x="267.5" y="-186.4" font-family="Times,serif" font-size="14.00">device_type :integer</text>
<text text-anchor="start" x="267.5" y="-172.4" font-family="Times,serif" font-size="14.00">name :string</text>
<text text-anchor="start" x="267.5" y="-158.4" font-family="Times,serif" font-size="14.00">comment :string</text>
<text text-anchor="start" x="267.5" y="-144.4" font-family="Times,serif" font-size="14.00">created_at :datetime</text>
<text text-anchor="start" x="267.5" y="-130.4" font-family="Times,serif" font-size="14.00">updated_at :datetime</text>
</g>
<!-- Company&#45;&gt;Device -->
<g id="edge2" class="edge"><title>Company&#45;&gt;Device</title>
<path fill="none" stroke="black" d="M309.944,-252.791C311.246,-246.855 312.528,-241.007 313.769,-235.345"/>
<polygon fill="black" stroke="black" points="309.902,-252.983 303.365,-261.787 308.831,-257.867 307.761,-262.751 307.761,-262.751 307.761,-262.751 308.831,-257.867 312.156,-263.715 309.902,-252.983 309.902,-252.983"/>
<polygon fill="black" stroke="black" points="313.813,-235.144 320.351,-226.34 314.884,-230.26 315.955,-225.376 315.955,-225.376 315.955,-225.376 314.884,-230.26 311.559,-224.412 313.813,-235.144 313.813,-235.144"/>
</g>
<!-- Datacenter -->
<g id="node4" class="node"><title>Datacenter</title>
<polyline fill="none" stroke="black" points="397.5,-555 508.5,-555 "/>
<path fill="none" stroke="black" d="M508.5,-555C514.5,-555 520.5,-561 520.5,-567"/>
<polyline fill="none" stroke="black" points="520.5,-567 520.5,-643 "/>
<path fill="none" stroke="black" d="M520.5,-643C520.5,-649 514.5,-655 508.5,-655"/>
<polyline fill="none" stroke="black" points="508.5,-655 397.5,-655 "/>
<path fill="none" stroke="black" d="M397.5,-655C391.5,-655 385.5,-649 385.5,-643"/>
<polyline fill="none" stroke="black" points="385.5,-643 385.5,-567 "/>
<path fill="none" stroke="black" d="M385.5,-567C385.5,-561 391.5,-555 397.5,-555"/>
<text text-anchor="middle" x="453" y="-638.4" font-family="Times,serif" font-size="14.00">Datacenter</text>
<polyline fill="none" stroke="black" points="385.5,-633 520.5,-633 "/>
<text text-anchor="start" x="393.5" y="-616.4" font-family="Times,serif" font-size="14.00">name :string</text>
<text text-anchor="start" x="393.5" y="-602.4" font-family="Times,serif" font-size="14.00">location :string</text>
<text text-anchor="start" x="393.5" y="-588.4" font-family="Times,serif" font-size="14.00">comment :string</text>
<text text-anchor="start" x="393.5" y="-574.4" font-family="Times,serif" font-size="14.00">created_at :datetime</text>
<text text-anchor="start" x="393.5" y="-560.4" font-family="Times,serif" font-size="14.00">updated_at :datetime</text>
</g>
<!-- ServerRack -->
<g id="node7" class="node"><title>ServerRack</title>
<polyline fill="none" stroke="black" points="397.5,-312 508.5,-312 "/>
<path fill="none" stroke="black" d="M508.5,-312C514.5,-312 520.5,-318 520.5,-324"/>
<polyline fill="none" stroke="black" points="520.5,-324 520.5,-400 "/>
<path fill="none" stroke="black" d="M520.5,-400C520.5,-406 514.5,-412 508.5,-412"/>
<polyline fill="none" stroke="black" points="508.5,-412 397.5,-412 "/>
<path fill="none" stroke="black" d="M397.5,-412C391.5,-412 385.5,-406 385.5,-400"/>
<polyline fill="none" stroke="black" points="385.5,-400 385.5,-324 "/>
<path fill="none" stroke="black" d="M385.5,-324C385.5,-318 391.5,-312 397.5,-312"/>
<text text-anchor="middle" x="453" y="-395.4" font-family="Times,serif" font-size="14.00">ServerRack</text>
<polyline fill="none" stroke="black" points="385.5,-390 520.5,-390 "/>
<text text-anchor="start" x="393.5" y="-373.4" font-family="Times,serif" font-size="14.00">name :string</text>
<text text-anchor="start" x="393.5" y="-359.4" font-family="Times,serif" font-size="14.00">comment :string</text>
<text text-anchor="start" x="393.5" y="-345.4" font-family="Times,serif" font-size="14.00">created_at :datetime</text>
<text text-anchor="start" x="393.5" y="-331.4" font-family="Times,serif" font-size="14.00">updated_at :datetime</text>
<text text-anchor="start" x="393.5" y="-317.4" font-family="Times,serif" font-size="14.00">lock_code :integer</text>
</g>
<!-- Datacenter&#45;&gt;ServerRack -->
<g id="edge4" class="edge"><title>Datacenter&#45;&gt;ServerRack</title>
<path fill="none" stroke="black" d="M453,-546.934C453,-509.469 453,-460.821 453,-422.824"/>
<ellipse fill="none" stroke="black" cx="453" cy="-550.945" rx="4" ry="4"/>
<polygon fill="black" stroke="black" points="453,-422.407 457.5,-412.407 453,-417.407 453,-412.407 453,-412.407 453,-412.407 453,-417.407 448.5,-412.407 453,-422.407 453,-422.407"/>
</g>
<!-- Interface -->
<g id="node6" class="node"><title>Interface</title>
<polyline fill="none" stroke="black" points="235.5,-1 356.5,-1 "/>
<path fill="none" stroke="black" d="M356.5,-1C362.5,-1 368.5,-7 368.5,-13"/>
<polyline fill="none" stroke="black" points="368.5,-13 368.5,-75 "/>
<path fill="none" stroke="black" d="M368.5,-75C368.5,-81 362.5,-87 356.5,-87"/>
<polyline fill="none" stroke="black" points="356.5,-87 235.5,-87 "/>
<path fill="none" stroke="black" d="M235.5,-87C229.5,-87 223.5,-81 223.5,-75"/>
<polyline fill="none" stroke="black" points="223.5,-75 223.5,-13 "/>
<path fill="none" stroke="black" d="M223.5,-13C223.5,-7 229.5,-1 235.5,-1"/>
<text text-anchor="middle" x="296" y="-70.4" font-family="Times,serif" font-size="14.00">Interface</text>
<polyline fill="none" stroke="black" points="223.5,-65 368.5,-65 "/>
<text text-anchor="start" x="231.5" y="-48.4" font-family="Times,serif" font-size="14.00">interface_type :integer</text>
<text text-anchor="start" x="231.5" y="-34.4" font-family="Times,serif" font-size="14.00">name :string</text>
<text text-anchor="start" x="231.5" y="-20.4" font-family="Times,serif" font-size="14.00">created_at :datetime</text>
<text text-anchor="start" x="231.5" y="-6.4" font-family="Times,serif" font-size="14.00">updated_at :datetime</text>
</g>
<!-- Device&#45;&gt;Interface -->
<g id="edge8" class="edge"><title>Device&#45;&gt;Interface</title>
<path fill="none" stroke="black" d="M313.225,-116.788C311.674,-110.237 310.101,-103.588 308.567,-97.1067"/>
<ellipse fill="none" stroke="black" cx="314.182" cy="-120.834" rx="4.00001" ry="4.00001"/>
<polygon fill="black" stroke="black" points="308.502,-96.8297 310.578,-86.0621 307.35,-91.9641 306.199,-87.0984 306.199,-87.0984 306.199,-87.0984 307.35,-91.9641 301.82,-88.1347 308.502,-96.8297 308.502,-96.8297"/>
</g>
<!-- Unit -->
<g id="node8" class="node"><title>Unit</title>
<polyline fill="none" stroke="black" points="397.5,-8 508.5,-8 "/>
<path fill="none" stroke="black" d="M508.5,-8C514.5,-8 520.5,-14 520.5,-20"/>
<polyline fill="none" stroke="black" points="520.5,-20 520.5,-68 "/>
<path fill="none" stroke="black" d="M520.5,-68C520.5,-74 514.5,-80 508.5,-80"/>
<polyline fill="none" stroke="black" points="508.5,-80 397.5,-80 "/>
<path fill="none" stroke="black" d="M397.5,-80C391.5,-80 385.5,-74 385.5,-68"/>
<polyline fill="none" stroke="black" points="385.5,-68 385.5,-20 "/>
<path fill="none" stroke="black" d="M385.5,-20C385.5,-14 391.5,-8 397.5,-8"/>
<text text-anchor="middle" x="453" y="-63.4" font-family="Times,serif" font-size="14.00">Unit</text>
<polyline fill="none" stroke="black" points="385.5,-58 520.5,-58 "/>
<text text-anchor="start" x="393.5" y="-41.4" font-family="Times,serif" font-size="14.00">number :integer</text>
<text text-anchor="start" x="393.5" y="-27.4" font-family="Times,serif" font-size="14.00">created_at :datetime</text>
<text text-anchor="start" x="393.5" y="-13.4" font-family="Times,serif" font-size="14.00">updated_at :datetime</text>
</g>
<!-- Device&#45;&gt;Unit -->
<g id="edge6" class="edge"><title>Device&#45;&gt;Unit</title>
<path fill="none" stroke="black" d="M381.1,-118.754C391.136,-108.319 401.48,-97.5648 411.084,-87.579"/>
<ellipse fill="none" stroke="black" cx="378.127" cy="-121.844" rx="4.00002" ry="4.00002"/>
<polygon fill="black" stroke="black" points="411.335,-87.3179 421.511,-83.23 414.802,-83.7142 418.268,-80.1106 418.268,-80.1106 418.268,-80.1106 414.802,-83.7142 415.024,-76.9911 411.335,-87.3179 411.335,-87.3179"/>
</g>
<!-- ServerRack&#45;&gt;Device -->
<g id="edge12" class="edge"><title>ServerRack&#45;&gt;Device</title>
<path fill="none" stroke="black" d="M413.607,-303.536C398.605,-281.271 381.514,-255.906 366.502,-233.626"/>
<polygon fill="black" stroke="black" points="413.646,-303.594 415.502,-314.402 416.44,-307.741 419.234,-311.887 419.234,-311.887 419.234,-311.887 416.44,-307.741 422.966,-309.373 413.646,-303.594 413.646,-303.594"/>
<polygon fill="black" stroke="black" points="366.447,-233.544 364.591,-222.736 363.653,-229.397 360.859,-225.251 360.859,-225.251 360.859,-225.251 363.653,-229.397 357.127,-227.765 366.447,-233.544 366.447,-233.544"/>
</g>
<!-- ServerRack&#45;&gt;Unit -->
<g id="edge10" class="edge"><title>ServerRack&#45;&gt;Unit</title>
<path fill="none" stroke="black" d="M453,-303.818C453,-242.459 453,-147.006 453,-90.4767"/>
<ellipse fill="none" stroke="black" cx="453" cy="-307.963" rx="4" ry="4"/>
<polygon fill="black" stroke="black" points="453,-90.3915 457.5,-80.3914 453,-85.3915 453,-80.3915 453,-80.3915 453,-80.3915 453,-85.3915 448.5,-80.3915 453,-90.3915 453,-90.3915"/>
</g>
<!-- User -->
<g id="node9" class="node"><title>User</title>
<polyline fill="none" stroke="black" points="549.5,-499 722.5,-499 "/>
<path fill="none" stroke="black" d="M722.5,-499C728.5,-499 734.5,-505 734.5,-511"/>
<polyline fill="none" stroke="black" points="734.5,-511 734.5,-699 "/>
<path fill="none" stroke="black" d="M734.5,-699C734.5,-705 728.5,-711 722.5,-711"/>
<polyline fill="none" stroke="black" points="722.5,-711 549.5,-711 "/>
<path fill="none" stroke="black" d="M549.5,-711C543.5,-711 537.5,-705 537.5,-699"/>
<polyline fill="none" stroke="black" points="537.5,-699 537.5,-511 "/>
<path fill="none" stroke="black" d="M537.5,-511C537.5,-505 543.5,-499 549.5,-499"/>
<text text-anchor="middle" x="636" y="-694.4" font-family="Times,serif" font-size="14.00">User</text>
<polyline fill="none" stroke="black" points="537.5,-689 734.5,-689 "/>
<text text-anchor="start" x="545.5" y="-672.4" font-family="Times,serif" font-size="14.00">email :string</text>
<text text-anchor="start" x="545.5" y="-658.4" font-family="Times,serif" font-size="14.00">encrypted_password :string</text>
<text text-anchor="start" x="545.5" y="-644.4" font-family="Times,serif" font-size="14.00">password_salt :string</text>
<text text-anchor="start" x="545.5" y="-630.4" font-family="Times,serif" font-size="14.00">reset_password_token :string</text>
<text text-anchor="start" x="545.5" y="-616.4" font-family="Times,serif" font-size="14.00">remember_token :string</text>
<text text-anchor="start" x="545.5" y="-602.4" font-family="Times,serif" font-size="14.00">remember_created_at :datetime</text>
<text text-anchor="start" x="545.5" y="-588.4" font-family="Times,serif" font-size="14.00">current_sign_in_at :datetime</text>
<text text-anchor="start" x="545.5" y="-574.4" font-family="Times,serif" font-size="14.00">last_sign_in_at :datetime</text>
<text text-anchor="start" x="545.5" y="-560.4" font-family="Times,serif" font-size="14.00">current_sign_in_ip :string</text>
<text text-anchor="start" x="545.5" y="-546.4" font-family="Times,serif" font-size="14.00">last_sign_in_ip :string</text>
<text text-anchor="start" x="545.5" y="-532.4" font-family="Times,serif" font-size="14.00">created_at :datetime</text>
<text text-anchor="start" x="545.5" y="-518.4" font-family="Times,serif" font-size="14.00">updated_at :datetime</text>
<text text-anchor="start" x="545.5" y="-504.4" font-family="Times,serif" font-size="14.00">rights :string</text>
</g>
</g>
</svg>
