<?xml version="1.0" encoding="UTF-8" standalone="no"?>
<!DOCTYPE svg PUBLIC "-//W3C//DTD SVG 1.1//EN"
 "http://www.w3.org/Graphics/SVG/1.1/DTD/svg11.dtd">
<!-- Generated by graphviz version 2.24.0 (20090616.2323)
 -->
<!-- Title: models_diagram Pages: 1 -->
<svg width="574pt" height="302pt"
 viewBox="0.00 0.00 574.00 302.00" xmlns="http://www.w3.org/2000/svg" xmlns:xlink="http://www.w3.org/1999/xlink">
<g id="graph1" class="graph" transform="scale(1 1) rotate(0) translate(4 298)">
<title>models_diagram</title>
<polygon fill="white" stroke="white" points="-4,5 -4,-298 571,-298 571,5 -4,5"/>
<!-- _diagram_info -->
<g id="node1" class="node"><title>_diagram_info</title>
<text text-anchor="start" x="-0.5" y="-278.3" font-family="Times,serif" font-size="13.00">Models diagram</text>
<text text-anchor="start" x="-0.5" y="-264.3" font-family="Times,serif" font-size="13.00">Date: Nov 22 2010 &#45; 12:03</text>
<text text-anchor="start" x="-0.5" y="-250.3" font-family="Times,serif" font-size="13.00">Migration version: 20101109155535</text>
<text text-anchor="start" x="-0.5" y="-236.3" font-family="Times,serif" font-size="13.00">Generated by RailRoady 0.11.2</text>
<text text-anchor="start" x="-0.5" y="-222.3" font-family="Times,serif" font-size="13.00">http://railroady.prestonlee.com</text>
</g>
<!-- CableConnection -->
<g id="node2" class="node"><title>CableConnection</title>
<ellipse fill="none" stroke="black" cx="306" cy="-255" rx="73.9061" ry="18"/>
<text text-anchor="middle" x="306" y="-249.4" font-family="Times,serif" font-size="14.00">CableConnection</text>
</g>
<!-- Company -->
<g id="node3" class="node"><title>Company</title>
<ellipse fill="none" stroke="black" cx="332" cy="-162" rx="44.9809" ry="18"/>
<text text-anchor="middle" x="332" y="-156.4" font-family="Times,serif" font-size="14.00">Company</text>
</g>
<!-- Device -->
<g id="node5" class="node"><title>Device</title>
<ellipse fill="none" stroke="black" cx="371" cy="-90" rx="36.0055" ry="18"/>
<text text-anchor="middle" x="371" y="-84.4" font-family="Times,serif" font-size="14.00">Device</text>
</g>
<!-- Company&#45;&gt;Device -->
<g id="edge2" class="edge"><title>Company&#45;&gt;Device</title>
<path fill="none" stroke="black" d="M346.442,-135.338C349.733,-129.261 353.231,-122.804 356.524,-116.725"/>
<polygon fill="black" stroke="black" points="346.403,-135.409 337.684,-142.059 344.022,-139.806 341.64,-144.202 341.64,-144.202 341.64,-144.202 344.022,-139.806 345.597,-146.346 346.403,-135.409 346.403,-135.409"/>
<polygon fill="black" stroke="black" points="356.708,-116.386 365.427,-109.736 359.089,-111.989 361.47,-107.593 361.47,-107.593 361.47,-107.593 359.089,-111.989 357.514,-105.45 356.708,-116.386 356.708,-116.386"/>
</g>
<!-- Datacenter -->
<g id="node4" class="node"><title>Datacenter</title>
<ellipse fill="none" stroke="black" cx="446" cy="-255" rx="48.1376" ry="18"/>
<text text-anchor="middle" x="446" y="-249.4" font-family="Times,serif" font-size="14.00">Datacenter</text>
</g>
<!-- ServerRack -->
<g id="node7" class="node"><title>ServerRack</title>
<ellipse fill="none" stroke="black" cx="446" cy="-162" rx="51.1658" ry="18"/>
<text text-anchor="middle" x="446" y="-156.4" font-family="Times,serif" font-size="14.00">ServerRack</text>
</g>
<!-- Datacenter&#45;&gt;ServerRack -->
<g id="edge4" class="edge"><title>Datacenter&#45;&gt;ServerRack</title>
<path fill="none" stroke="black" d="M446,-228.443C446,-216.448 446,-202.268 446,-190.095"/>
<ellipse fill="none" stroke="black" cx="446" cy="-232.626" rx="4" ry="4"/>
<polygon fill="black" stroke="black" points="446,-190.019 450.5,-180.019 446,-185.019 446,-180.019 446,-180.019 446,-180.019 446,-185.019 441.5,-180.019 446,-190.019 446,-190.019"/>
</g>
<!-- Interface -->
<g id="node6" class="node"><title>Interface</title>
<ellipse fill="none" stroke="black" cx="360" cy="-18" rx="41.1883" ry="18"/>
<text text-anchor="middle" x="360" y="-12.4" font-family="Times,serif" font-size="14.00">Interface</text>
</g>
<!-- Device&#45;&gt;Interface -->
<g id="edge8" class="edge"><title>Device&#45;&gt;Interface</title>
<path fill="none" stroke="black" d="M366.999,-63.8144C366.132,-58.1355 365.21,-52.1039 364.331,-46.3461"/>
<ellipse fill="none" stroke="black" cx="367.62" cy="-67.8772" rx="4.00001" ry="4.00001"/>
<polygon fill="black" stroke="black" points="364.323,-46.2986 367.262,-35.7336 363.568,-41.3559 362.813,-36.4133 362.813,-36.4133 362.813,-36.4133 363.568,-41.3559 358.365,-37.0929 364.323,-46.2986 364.323,-46.2986"/>
</g>
<!-- Unit -->
<g id="node8" class="node"><title>Unit</title>
<ellipse fill="none" stroke="black" cx="446" cy="-18" rx="27" ry="18"/>
<text text-anchor="middle" x="446" y="-12.4" font-family="Times,serif" font-size="14.00">Unit</text>
</g>
<!-- Device&#45;&gt;Unit -->
<g id="edge6" class="edge"><title>Device&#45;&gt;Unit</title>
<path fill="none" stroke="black" d="M393.614,-68.2902C402.905,-59.3713 413.651,-49.0554 422.982,-40.0968"/>
<ellipse fill="none" stroke="black" cx="390.53" cy="-71.2507" rx="4.00002" ry="4.00002"/>
<polygon fill="black" stroke="black" points="423.212,-39.8766 433.542,-36.1975 426.819,-36.4139 430.426,-32.9512 430.426,-32.9512 430.426,-32.9512 426.819,-36.4139 427.309,-29.705 423.212,-39.8766 423.212,-39.8766"/>
</g>
<!-- ServerRack&#45;&gt;Device -->
<g id="edge12" class="edge"><title>ServerRack&#45;&gt;Device</title>
<path fill="none" stroke="black" d="M420.996,-137.996C412.661,-129.995 403.397,-121.101 395.13,-113.165"/>
<polygon fill="black" stroke="black" points="421.012,-138.012 425.11,-148.183 424.619,-141.474 428.226,-144.937 428.226,-144.937 428.226,-144.937 424.619,-141.474 431.342,-141.691 421.012,-138.012 421.012,-138.012"/>
<polygon fill="black" stroke="black" points="395.088,-113.124 390.99,-102.953 391.481,-109.662 387.874,-106.199 387.874,-106.199 387.874,-106.199 391.481,-109.662 384.757,-109.445 395.088,-113.124 395.088,-113.124"/>
</g>
<!-- ServerRack&#45;&gt;Unit -->
<g id="edge10" class="edge"><title>ServerRack&#45;&gt;Unit</title>
<path fill="none" stroke="black" d="M446,-135.735C446,-110.464 446,-72.3666 446,-46.4018"/>
<ellipse fill="none" stroke="black" cx="446" cy="-139.762" rx="4" ry="4"/>
<polygon fill="black" stroke="black" points="446,-46.0896 450.5,-36.0896 446,-41.0896 446,-36.0896 446,-36.0896 446,-36.0896 446,-41.0896 441.5,-36.0897 446,-46.0896 446,-46.0896"/>
</g>
<!-- User -->
<g id="node9" class="node"><title>User</title>
<ellipse fill="none" stroke="black" cx="539" cy="-255" rx="27.1621" ry="18"/>
<text text-anchor="middle" x="539" y="-249.4" font-family="Times,serif" font-size="14.00">User</text>
</g>
</g>
</svg>
