<?xml version="1.0" encoding="UTF-8" standalone="no"?>
<!DOCTYPE svg PUBLIC "-//W3C//DTD SVG 1.1//EN"
 "http://www.w3.org/Graphics/SVG/1.1/DTD/svg11.dtd">
<!-- Generated by graphviz version 2.24.0 (20090616.2323)
 -->
<!-- Title: models_diagram Pages: 1 -->
<svg width="576pt" height="302pt"
 viewBox="0.00 0.00 576.00 302.00" xmlns="http://www.w3.org/2000/svg" xmlns:xlink="http://www.w3.org/1999/xlink">
<g id="graph1" class="graph" transform="scale(1 1) rotate(0) translate(4 298)">
<title>models_diagram</title>
<polygon fill="white" stroke="white" points="-4,5 -4,-298 573,-298 573,5 -4,5"/>
<!-- _diagram_info -->
<g id="node1" class="node"><title>_diagram_info</title>
<text text-anchor="start" x="0" y="-278.3" font-family="Times,serif" font-size="13.00">Models diagram</text>
<text text-anchor="start" x="0" y="-264.3" font-family="Times,serif" font-size="13.00">Date: Dec 07 2010 &#45; 15:46</text>
<text text-anchor="start" x="0" y="-250.3" font-family="Times,serif" font-size="13.00">Migration version: 20101206102859</text>
<text text-anchor="start" x="0" y="-236.3" font-family="Times,serif" font-size="13.00">Generated by RailRoady 0.11.2</text>
<text text-anchor="start" x="0" y="-222.3" font-family="Times,serif" font-size="13.00">http://railroady.prestonlee.com</text>
</g>
<!-- CableConnection -->
<g id="node2" class="node"><title>CableConnection</title>
<ellipse fill="none" stroke="black" cx="308" cy="-255" rx="73.9061" ry="18"/>
<text text-anchor="middle" x="308" y="-249.4" font-family="Times,serif" font-size="14.00">CableConnection</text>
</g>
<!-- Company -->
<g id="node3" class="node"><title>Company</title>
<ellipse fill="none" stroke="black" cx="334" cy="-162" rx="44.9809" ry="18"/>
<text text-anchor="middle" x="334" y="-156.4" font-family="Times,serif" font-size="14.00">Company</text>
</g>
<!-- Device -->
<g id="node5" class="node"><title>Device</title>
<ellipse fill="none" stroke="black" cx="373" cy="-90" rx="36.0055" ry="18"/>
<text text-anchor="middle" x="373" y="-84.4" font-family="Times,serif" font-size="14.00">Device</text>
</g>
<!-- Company&#45;&gt;Device -->
<g id="edge2" class="edge"><title>Company&#45;&gt;Device</title>
<path fill="none" stroke="black" d="M348.442,-135.338C351.733,-129.261 355.231,-122.804 358.524,-116.725"/>
<polygon fill="black" stroke="black" points="348.403,-135.409 339.684,-142.059 346.022,-139.806 343.64,-144.202 343.64,-144.202 343.64,-144.202 346.022,-139.806 347.597,-146.346 348.403,-135.409 348.403,-135.409"/>
<polygon fill="black" stroke="black" points="358.708,-116.386 367.427,-109.736 361.089,-111.989 363.47,-107.593 363.47,-107.593 363.47,-107.593 361.089,-111.989 359.514,-105.45 358.708,-116.386 358.708,-116.386"/>
</g>
<!-- Datacenter -->
<g id="node4" class="node"><title>Datacenter</title>
<ellipse fill="none" stroke="black" cx="448" cy="-255" rx="48.1376" ry="18"/>
<text text-anchor="middle" x="448" y="-249.4" font-family="Times,serif" font-size="14.00">Datacenter</text>
</g>
<!-- ServerRack -->
<g id="node7" class="node"><title>ServerRack</title>
<ellipse fill="none" stroke="black" cx="448" cy="-162" rx="51.1658" ry="18"/>
<text text-anchor="middle" x="448" y="-156.4" font-family="Times,serif" font-size="14.00">ServerRack</text>
</g>
<!-- Datacenter&#45;&gt;ServerRack -->
<g id="edge4" class="edge"><title>Datacenter&#45;&gt;ServerRack</title>
<path fill="none" stroke="black" d="M448,-228.443C448,-216.448 448,-202.268 448,-190.095"/>
<ellipse fill="none" stroke="black" cx="448" cy="-232.626" rx="4" ry="4"/>
<polygon fill="black" stroke="black" points="448,-190.019 452.5,-180.019 448,-185.019 448,-180.019 448,-180.019 448,-180.019 448,-185.019 443.5,-180.019 448,-190.019 448,-190.019"/>
</g>
<!-- Interface -->
<g id="node6" class="node"><title>Interface</title>
<ellipse fill="none" stroke="black" cx="362" cy="-18" rx="41.1883" ry="18"/>
<text text-anchor="middle" x="362" y="-12.4" font-family="Times,serif" font-size="14.00">Interface</text>
</g>
<!-- Device&#45;&gt;Interface -->
<g id="edge8" class="edge"><title>Device&#45;&gt;Interface</title>
<path fill="none" stroke="black" d="M368.999,-63.8144C368.132,-58.1355 367.21,-52.1039 366.331,-46.3461"/>
<ellipse fill="none" stroke="black" cx="369.62" cy="-67.8772" rx="4.00001" ry="4.00001"/>
<polygon fill="black" stroke="black" points="366.323,-46.2986 369.262,-35.7336 365.568,-41.3559 364.813,-36.4133 364.813,-36.4133 364.813,-36.4133 365.568,-41.3559 360.365,-37.0929 366.323,-46.2986 366.323,-46.2986"/>
</g>
<!-- Unit -->
<g id="node8" class="node"><title>Unit</title>
<ellipse fill="none" stroke="black" cx="448" cy="-18" rx="27" ry="18"/>
<text text-anchor="middle" x="448" y="-12.4" font-family="Times,serif" font-size="14.00">Unit</text>
</g>
<!-- Device&#45;&gt;Unit -->
<g id="edge6" class="edge"><title>Device&#45;&gt;Unit</title>
<path fill="none" stroke="black" d="M395.614,-68.2902C404.905,-59.3713 415.651,-49.0554 424.982,-40.0968"/>
<ellipse fill="none" stroke="black" cx="392.53" cy="-71.2507" rx="4.00002" ry="4.00002"/>
<polygon fill="black" stroke="black" points="425.212,-39.8766 435.542,-36.1975 428.819,-36.4139 432.426,-32.9512 432.426,-32.9512 432.426,-32.9512 428.819,-36.4139 429.309,-29.705 425.212,-39.8766 425.212,-39.8766"/>
</g>
<!-- ServerRack&#45;&gt;Device -->
<g id="edge12" class="edge"><title>ServerRack&#45;&gt;Device</title>
<path fill="none" stroke="black" d="M422.996,-137.996C414.661,-129.995 405.397,-121.101 397.13,-113.165"/>
<polygon fill="black" stroke="black" points="423.012,-138.012 427.11,-148.183 426.619,-141.474 430.226,-144.937 430.226,-144.937 430.226,-144.937 426.619,-141.474 433.342,-141.691 423.012,-138.012 423.012,-138.012"/>
<polygon fill="black" stroke="black" points="397.088,-113.124 392.99,-102.953 393.481,-109.662 389.874,-106.199 389.874,-106.199 389.874,-106.199 393.481,-109.662 386.757,-109.445 397.088,-113.124 397.088,-113.124"/>
</g>
<!-- ServerRack&#45;&gt;Unit -->
<g id="edge10" class="edge"><title>ServerRack&#45;&gt;Unit</title>
<path fill="none" stroke="black" d="M448,-135.735C448,-110.464 448,-72.3666 448,-46.4018"/>
<ellipse fill="none" stroke="black" cx="448" cy="-139.762" rx="4" ry="4"/>
<polygon fill="black" stroke="black" points="448,-46.0896 452.5,-36.0896 448,-41.0896 448,-36.0896 448,-36.0896 448,-36.0896 448,-41.0896 443.5,-36.0897 448,-46.0896 448,-46.0896"/>
</g>
<!-- User -->
<g id="node9" class="node"><title>User</title>
<ellipse fill="none" stroke="black" cx="541" cy="-255" rx="27.1621" ry="18"/>
<text text-anchor="middle" x="541" y="-249.4" font-family="Times,serif" font-size="14.00">User</text>
</g>
</g>
</svg>
